<svg
   xmlns:svg="http://www.w3.org/2000/svg"
   xmlns="http://www.w3.org/2000/svg"
   xmlns:xlink="http://www.w3.org/1999/xlink"
   version="1.0"
   width="70.3744mm"
   height="91.9733mm"
   id="svg2403"
   xml:space="preserve">
<text x="0" y="8.616" id="text1000">
  <tspan x="0" y="8.616" fill="#000000"  font-variant="normal" font-weight="normal" font-style="normal" font-family="Bitstream Vera Sans" font-size="12" id="tspan1001">RF00005_tRNA.cacofold</tspan>
</text>
<path
 fill="#31a354" stroke="none"
 d="M 67.1392 167.601 L 67.1392,167.601L 85.2142,167.601L 85.2142,172.986L 67.1392,172.986Z"/>
<path
 fill="none" stroke="#000000" stroke-width="1.44" stroke-linecap="butt" stroke-linejoin="miter"
 d="M 74.2327 170.294 L 78.1207 170.294 "/>
<path
 fill="#31a354" stroke="none"
 d="M 67.1392 160.041 L 67.1392,160.041L 85.2142,160.041L 85.2142,165.426L 67.1392,165.426Z"/>
<path
 fill="none" stroke="#000000" stroke-width="1.44" stroke-linecap="butt" stroke-linejoin="miter"
 d="M 74.2327 162.734 L 78.1207 162.734 "/>
<path
 fill="#31a354" stroke="none"
 d="M 67.1392 152.481 L 67.1392,152.481L 85.2142,152.481L 85.2142,157.866L 67.1392,157.866Z"/>
<path
 fill="none" stroke="#000000" stroke-width="1.44" stroke-linecap="butt" stroke-linejoin="miter"
 d="M 74.2327 155.174 L 78.1207 155.174 "/>
<path
 fill="#31a354" stroke="none"
 d="M 67.1392 144.921 L 67.1392,144.921L 85.2142,144.921L 85.2142,150.306L 67.1392,150.306Z"/>
<path
 fill="none" stroke="#000000" stroke-width="1.44" stroke-linecap="butt" stroke-linejoin="miter"
 d="M 74.2327 147.614 L 78.1207 147.614 "/>
<path
 fill="#31a354" stroke="none"
 d="M 67.1392 137.361 L 67.1392,137.361L 85.2142,137.361L 85.2142,142.746L 67.1392,142.746Z"/>
<path
 fill="none" stroke="#000000" stroke-width="1.44" stroke-linecap="butt" stroke-linejoin="miter"
 d="M 74.2327 140.054 L 78.1207 140.054 "/>
<path
 fill="#31a354" stroke="none"
 d="M 67.1392 129.801 L 67.1392,129.801L 85.2142,129.801L 85.2142,135.186L 67.1392,135.186Z"/>
<path
 fill="none" stroke="#000000" stroke-width="1.44" stroke-linecap="butt" stroke-linejoin="miter"
 d="M 74.2327 132.494 L 78.1207 132.494 "/>
<path
 fill="#31a354" stroke="none"
 d="M 67.1392 122.241 L 67.1392,122.241L 85.2142,122.241L 85.2142,127.626L 67.1392,127.626Z"/>
<path
 fill="none" stroke="#000000" stroke-width="1.44" stroke-linecap="butt" stroke-linejoin="miter"
 d="M 74.2327 124.934 L 78.1207 124.934 "/>
<path
 fill="#31a354" stroke="none"
 d="M 52.0043 111.553 L 52.0043,111.553L 53.6259,93.4998L 59.894,94.0629L 58.2724,112.116Z"/>
<path
 fill="none" stroke="#000000" stroke-width="1.44" stroke-linecap="butt" stroke-linejoin="miter"
 d="M 55.7752 104.744 L 56.1231 100.872 "/>
<path
 fill="#31a354" stroke="none"
 d="M 44.4746 110.876 L 44.4746,110.876L 46.0962,92.8235L 52.3643,93.3865L 50.7428,111.439Z"/>
<path
 fill="none" stroke="#000000" stroke-width="1.44" stroke-linecap="butt" stroke-linejoin="miter"
 d="M 48.2456 104.068 L 48.5934 100.195 "/>
<path
 fill="#31a354" stroke="none"
 d="M 36.945 110.2 L 36.945,110.2L 38.5665,92.1472L 44.8346,92.7102L 43.2131,110.763Z"/>
<path
 fill="none" stroke="#000000" stroke-width="1.44" stroke-linecap="butt" stroke-linejoin="miter"
 d="M 40.7159 103.391 L 41.0637 99.5188 "/>
<path
 fill="#31a354" stroke="none"
 d="M 29.4153 109.524 L 29.4153,109.524L 31.0368,91.4708L 37.305,92.0338L 35.6834,110.087Z"/>
<path
 fill="none" stroke="#000000" stroke-width="1.44" stroke-linecap="butt" stroke-linejoin="miter"
 d="M 33.1862 102.715 L 33.534 98.8425 "/>
<path
 fill="#31a354" stroke="none"
 d="M 10.0992 107.789 L 10.0992,107.789L 11.7208,89.7358L 17.9889,90.2988L 16.3673,108.352Z"/>
<path
 fill="none" stroke="#000000" stroke-width="1.44" stroke-linecap="butt" stroke-linejoin="miter"
 d="M 13.8701 100.98 L 14.218 97.1075 "/>
<path
 fill="#31a354" stroke="none"
 d="M 62.6761 83.2241 L 62.6761,83.2241L 81.3142,79.8486L 82.4387,86.0576L 63.8006,89.4331Z"/>
<path
 fill="none" stroke="#000000" stroke-width="1.44" stroke-linecap="butt" stroke-linejoin="miter"
 d="M 70.6445 84.9872 L 74.4703 84.2944 "/>
<path
 fill="#31a354" stroke="none"
 d="M 61.3289 75.7851 L 61.3289,75.7851L 79.9669,72.4096L 81.0914,78.6186L 62.4534,81.9941Z"/>
<path
 fill="none" stroke="#000000" stroke-width="1.44" stroke-linecap="butt" stroke-linejoin="miter"
 d="M 69.2973 77.5483 L 73.123 76.8554 "/>
<path
 fill="#31a354" stroke="none"
 d="M 59.9816 68.3461 L 59.9816,68.3461L 78.6197,64.9706L 79.7442,71.1796L 61.1061,74.5551Z"/>
<path
 fill="none" stroke="#000000" stroke-width="1.44" stroke-linecap="butt" stroke-linejoin="miter"
 d="M 67.95 70.1093 L 71.7758 69.4164 "/>
<path
 fill="#31a354" stroke="none"
 d="M 58.6344 60.9071 L 58.6344,60.9071L 77.2724,57.5316L 78.3969,63.7406L 59.7589,67.1161Z"/>
<path
 fill="none" stroke="#000000" stroke-width="1.44" stroke-linecap="butt" stroke-linejoin="miter"
 d="M 66.6028 62.6703 L 70.4285 61.9774 "/>
<path
 fill="#31a354" stroke="none"
 d="M 57.2871 53.4681 L 57.2871,53.4681L 75.9252,50.0926L 77.0497,56.3016L 58.4116,59.6771Z"/>
<path
 fill="none" stroke="#000000" stroke-width="1.44" stroke-linecap="butt" stroke-linejoin="miter"
 d="M 65.2555 55.2313 L 69.0813 54.5384 "/>
<path
 fill="#31a354" stroke="none"
 d="M 101.051 110.286 L 101.051,110.286L 89.3014,126.5L 84.1919,122.798L 95.9419,106.583Z"/>
<path
 fill="none" stroke="#000000" stroke-width="1.44" stroke-linecap="butt" stroke-linejoin="miter"
 d="M 93.7624 114.967 L 91.4809 118.116 "/>
<path
 fill="#31a354" stroke="none"
 d="M 107.173 114.722 L 107.173,114.722L 95.423,130.936L 90.3136,127.234L 102.064,111.019Z"/>
<path
 fill="none" stroke="#000000" stroke-width="1.44" stroke-linecap="butt" stroke-linejoin="miter"
 d="M 99.884 119.404 L 97.6026 122.552 "/>
<path
 fill="#31a354" stroke="none"
 d="M 113.295 119.158 L 113.295,119.158L 101.545,135.372L 96.4352,131.67L 108.185,115.455Z"/>
<path
 fill="none" stroke="#000000" stroke-width="1.44" stroke-linecap="butt" stroke-linejoin="miter"
 d="M 106.006 123.84 L 103.724 126.988 "/>
<path
 fill="#31a354" stroke="none"
 d="M 119.416 123.594 L 119.416,123.594L 107.666,139.808L 102.557,136.106L 114.307,119.891Z"/>
<path
 fill="none" stroke="#000000" stroke-width="1.44" stroke-linecap="butt" stroke-linejoin="miter"
 d="M 112.127 128.276 L 109.846 131.424 "/>
<path
 fill="#31a354" stroke="none"
 d="M 125.538 128.03 L 125.538,128.03L 113.788,144.245L 108.679,140.542L 120.429,124.327Z"/>
<path
 fill="none" stroke="#000000" stroke-width="1.44" stroke-linecap="butt" stroke-linejoin="miter"
 d="M 118.249 132.712 L 115.968 135.86 "/>
<path
 fill="none" stroke="#5c5c5c" stroke-width="0.5" stroke-linecap="butt" stroke-linejoin="miter"
 d=""/>
<path
 fill="none" stroke="#5c5c5c" stroke-width="0.5" stroke-linecap="butt" stroke-linejoin="miter"
 d=""/>
<path
 fill="none" stroke="#5c5c5c" stroke-width="0.5" stroke-linecap="butt" stroke-linejoin="miter"
 d=""/>
<path
 fill="none" stroke="#5c5c5c" stroke-width="0.5" stroke-linecap="butt" stroke-linejoin="miter"
 d=""/>
<path
 fill="none" stroke="#5c5c5c" stroke-width="0.5" stroke-linecap="butt" stroke-linejoin="miter"
 d=""/>
<path
 fill="none" stroke="#5c5c5c" stroke-width="0.5" stroke-linecap="butt" stroke-linejoin="miter"
 d=""/>
<path
 fill="none" stroke="#5c5c5c" stroke-width="0.5" stroke-linecap="butt" stroke-linejoin="miter"
 d=""/>
<path
 fill="none" stroke="#5c5c5c" stroke-width="0.5" stroke-linecap="butt" stroke-linejoin="miter"
 d=""/>
<path
 fill="none" stroke="#5c5c5c" stroke-width="0.5" stroke-linecap="butt" stroke-linejoin="miter"
 d=""/>
<path
 fill="none" stroke="#5c5c5c" stroke-width="0.5" stroke-linecap="butt" stroke-linejoin="miter"
 d=""/>
<path
 fill="none" stroke="#5c5c5c" stroke-width="0.5" stroke-linecap="butt" stroke-linejoin="miter"
 d=""/>
<path
 fill="none" stroke="#5c5c5c" stroke-width="0.5" stroke-linecap="butt" stroke-linejoin="miter"
 d=""/>
<path
 fill="none" stroke="#5c5c5c" stroke-width="0.5" stroke-linecap="butt" stroke-linejoin="miter"
 d=""/>
<path
 fill="none" stroke="#5c5c5c" stroke-width="0.5" stroke-linecap="butt" stroke-linejoin="miter"
 d="M 27.2402 119.105 A 13.4513,13.4513 0 0,1 16.8,118.168"/>
<path
 fill="none" stroke="#5c5c5c" stroke-width="0.5" stroke-linecap="butt" stroke-linejoin="miter"
 d="M 16.9259 109.212 L 9.39621 108.536 "/>
<path
 fill="none" stroke="#5c5c5c" stroke-width="0.5" stroke-linecap="butt" stroke-linejoin="miter"
 d="M 9.2419 95.173 A 15.2167,15.2167 0 0,1 15.3339,87.2021"/>
<path
 fill="none" stroke="#5c5c5c" stroke-width="0.5" stroke-linecap="butt" stroke-linejoin="miter"
 d=""/>
<path
 fill="none" stroke="#5c5c5c" stroke-width="0.5" stroke-linecap="butt" stroke-linejoin="miter"
 d=""/>
<path
 fill="none" stroke="#5c5c5c" stroke-width="0.5" stroke-linecap="butt" stroke-linejoin="miter"
 d=""/>
<path
 fill="none" stroke="#5c5c5c" stroke-width="0.5" stroke-linecap="butt" stroke-linejoin="miter"
 d=""/>
<path
 fill="none" stroke="#5c5c5c" stroke-width="0.5" stroke-linecap="butt" stroke-linejoin="miter"
 d=""/>
<path
 fill="none" stroke="#5c5c5c" stroke-width="0.5" stroke-linecap="butt" stroke-linejoin="miter"
 d=""/>
<path
 fill="none" stroke="#5c5c5c" stroke-width="0.5" stroke-linecap="butt" stroke-linejoin="miter"
 d=""/>
<path
 fill="none" stroke="#5c5c5c" stroke-width="0.5" stroke-linecap="butt" stroke-linejoin="miter"
 d=""/>
<path
 fill="none" stroke="#5c5c5c" stroke-width="0.5" stroke-linecap="butt" stroke-linejoin="miter"
 d=""/>
<path
 fill="none" stroke="#5c5c5c" stroke-width="0.5" stroke-linecap="butt" stroke-linejoin="miter"
 d=""/>
<path
 fill="none" stroke="#5c5c5c" stroke-width="0.5" stroke-linecap="butt" stroke-linejoin="miter"
 d=""/>
<path
 fill="none" stroke="#5c5c5c" stroke-width="0.5" stroke-linecap="butt" stroke-linejoin="miter"
 d=""/>
<path
 fill="none" stroke="#5c5c5c" stroke-width="0.5" stroke-linecap="butt" stroke-linejoin="miter"
 d=""/>
<path
 fill="none" stroke="#5c5c5c" stroke-width="0.5" stroke-linecap="butt" stroke-linejoin="miter"
 d=""/>
<path
 fill="none" stroke="#5c5c5c" stroke-width="0.5" stroke-linecap="butt" stroke-linejoin="miter"
 d="M 57.8304 31.2513 A 15.5943,15.5943 0 0,1 67.6246,29.4775"/>
<path
 fill="none" stroke="#5c5c5c" stroke-width="0.5" stroke-linecap="butt" stroke-linejoin="miter"
 d=""/>
<path
 fill="none" stroke="#5c5c5c" stroke-width="0.5" stroke-linecap="butt" stroke-linejoin="miter"
 d=""/>
<path
 fill="none" stroke="#5c5c5c" stroke-width="0.5" stroke-linecap="butt" stroke-linejoin="miter"
 d=""/>
<path
 fill="none" stroke="#5c5c5c" stroke-width="0.5" stroke-linecap="butt" stroke-linejoin="miter"
 d=""/>
<path
 fill="none" stroke="#5c5c5c" stroke-width="0.5" stroke-linecap="butt" stroke-linejoin="miter"
 d=""/>
<path
 fill="none" stroke="#5c5c5c" stroke-width="0.5" stroke-linecap="butt" stroke-linejoin="miter"
 d=""/>
<path
 fill="none" stroke="#5c5c5c" stroke-width="0.5" stroke-linecap="butt" stroke-linejoin="miter"
 d=""/>
<path
 fill="none" stroke="#5c5c5c" stroke-width="0.5" stroke-linecap="butt" stroke-linejoin="miter"
 d=""/>
<path
 fill="none" stroke="#5c5c5c" stroke-width="0.5" stroke-linecap="butt" stroke-linejoin="miter"
 d=""/>
<path
 fill="none" stroke="#5c5c5c" stroke-width="0.5" stroke-linecap="butt" stroke-linejoin="miter"
 d=""/>
<path
 fill="none" stroke="#5c5c5c" stroke-width="0.5" stroke-linecap="butt" stroke-linejoin="miter"
 d="M 100.625 99.5897 A 24.961,24.961 0 0,1 100.838,108.484"/>
<path
 fill="none" stroke="#5c5c5c" stroke-width="0.5" stroke-linecap="butt" stroke-linejoin="miter"
 d=""/>
<path
 fill="none" stroke="#5c5c5c" stroke-width="0.5" stroke-linecap="butt" stroke-linejoin="miter"
 d=""/>
<path
 fill="none" stroke="#5c5c5c" stroke-width="0.5" stroke-linecap="butt" stroke-linejoin="miter"
 d=""/>
<path
 fill="none" stroke="#5c5c5c" stroke-width="0.5" stroke-linecap="butt" stroke-linejoin="miter"
 d=""/>
<path
 fill="none" stroke="#5c5c5c" stroke-width="0.5" stroke-linecap="butt" stroke-linejoin="miter"
 d=""/>
<path
 fill="none" stroke="#5c5c5c" stroke-width="0.5" stroke-linecap="butt" stroke-linejoin="miter"
 d="M 133.784 127.139 A 15.5943,15.5943 0 0,1 140.207,144.878"/>
<path
 fill="none" stroke="#5c5c5c" stroke-width="0.5" stroke-linecap="butt" stroke-linejoin="miter"
 d=""/>
<path
 fill="none" stroke="#5c5c5c" stroke-width="0.5" stroke-linecap="butt" stroke-linejoin="miter"
 d=""/>
<path
 fill="none" stroke="#5c5c5c" stroke-width="0.5" stroke-linecap="butt" stroke-linejoin="miter"
 d=""/>
<path
 fill="none" stroke="#5c5c5c" stroke-width="0.5" stroke-linecap="butt" stroke-linejoin="miter"
 d=""/>
<path
 fill="none" stroke="#5c5c5c" stroke-width="0.5" stroke-linecap="butt" stroke-linejoin="miter"
 d=""/>
<path
 fill="none" stroke="#5c5c5c" stroke-width="0.5" stroke-linecap="butt" stroke-linejoin="miter"
 d=""/>
<path
 fill="none" stroke="#5c5c5c" stroke-width="0.5" stroke-linecap="butt" stroke-linejoin="miter"
 d=""/>
<path
 fill="none" stroke="#5c5c5c" stroke-width="0.5" stroke-linecap="butt" stroke-linejoin="miter"
 d=""/>
<path
 fill="none" stroke="#5c5c5c" stroke-width="0.5" stroke-linecap="butt" stroke-linejoin="miter"
 d=""/>
<path
 fill="none" stroke="#5c5c5c" stroke-width="0.5" stroke-linecap="butt" stroke-linejoin="miter"
 d=""/>
<path
 fill="none" stroke="#5c5c5c" stroke-width="0.5" stroke-linecap="butt" stroke-linejoin="miter"
 d=""/>
<path
 fill="none" stroke="#5c5c5c" stroke-width="0.5" stroke-linecap="butt" stroke-linejoin="miter"
 d=""/>
<path
 fill="none" stroke="#5c5c5c" stroke-width="0.5" stroke-linecap="butt" stroke-linejoin="miter"
 d=""/>
<path
 fill="none" stroke="#5c5c5c" stroke-width="0.5" stroke-linecap="butt" stroke-linejoin="miter"
 d=""/>
<path
 fill="none" stroke="#5c5c5c" stroke-width="0.5" stroke-linecap="butt" stroke-linejoin="miter"
 d=""/>
<path
 fill="none" stroke="#5c5c5c" stroke-width="0.5" stroke-linecap="butt" stroke-linejoin="miter"
 d="M 83.8624 171.889 L 91.4224 171.889 "/>
<path
 fill="none" stroke="#5c5c5c" stroke-width="0.5" stroke-linecap="butt" stroke-linejoin="miter"
 d=""/>
<path
 fill="none" stroke="#5c5c5c" stroke-width="0.5" stroke-linecap="butt" stroke-linejoin="miter"
 d=""/>
<path
 fill="none" stroke="#5c5c5c" stroke-width="0.5" stroke-linecap="butt" stroke-linejoin="miter"
 d=""/>
<path
 fill="none" stroke="#5c5c5c" stroke-width="0.5" stroke-linecap="butt" stroke-linejoin="miter"
 d=""/>
<path
 fill="none" stroke="#5c5c5c" stroke-width="0.5" stroke-linecap="butt" stroke-linejoin="miter"
 d=""/>
<path
 fill="none" stroke="#5c5c5c" stroke-width="0.5" stroke-linecap="butt" stroke-linejoin="miter"
 d=""/>
<path
 fill="none" stroke="#5c5c5c" stroke-width="0.5" stroke-linecap="butt" stroke-linejoin="miter"
 d=""/>
<path
 fill="none" stroke="#5c5c5c" stroke-width="0.5" stroke-linecap="butt" stroke-linejoin="miter"
 d=""/>
<path
 fill="none" stroke="#5c5c5c" stroke-width="0.5" stroke-linecap="butt" stroke-linejoin="miter"
 d=""/>
<path
 fill="none" stroke="#5c5c5c" stroke-width="0.5" stroke-linecap="butt" stroke-linejoin="miter"
 d=""/>
<path
 fill="none" stroke="#5c5c5c" stroke-width="0.5" stroke-linecap="butt" stroke-linejoin="miter"
 d=""/>
<path
 fill="none" stroke="#5c5c5c" stroke-width="0.5" stroke-linecap="butt" stroke-linejoin="miter"
 d=""/>
<path
 fill="none" stroke="#5c5c5c" stroke-width="0.5" stroke-linecap="butt" stroke-linejoin="miter"
 d=""/>
<path
 fill="none" stroke="#5c5c5c" stroke-width="0.5" stroke-linecap="butt" stroke-linejoin="miter"
 d=""/>
<path
 fill="none" stroke="#5c5c5c" stroke-width="0.5" stroke-linecap="butt" stroke-linejoin="miter"
 d=""/>
<path
 fill="none" stroke="#5c5c5c" stroke-width="0.5" stroke-linecap="butt" stroke-linejoin="miter"
 d=""/>
<path
 fill="none" stroke="#5c5c5c" stroke-width="0.5" stroke-linecap="butt" stroke-linejoin="miter"
 d=""/>
<path
 fill="none" stroke="#5c5c5c" stroke-width="0.5" stroke-linecap="butt" stroke-linejoin="miter"
 d=""/>
<path
 fill="none" stroke="#5c5c5c" stroke-width="0.5" stroke-linecap="butt" stroke-linejoin="miter"
 d=""/>
<path
 fill="none" stroke="#5c5c5c" stroke-width="0.5" stroke-linecap="butt" stroke-linejoin="miter"
 d=""/>
<path
 fill="none" stroke="#5c5c5c" stroke-width="0.5" stroke-linecap="butt" stroke-linejoin="miter"
 d=""/>
<path
 fill="none" stroke="#5c5c5c" stroke-width="0.5" stroke-linecap="butt" stroke-linejoin="miter"
 d=""/>
<path
 fill="none" stroke="#5c5c5c" stroke-width="0.5" stroke-linecap="butt" stroke-linejoin="miter"
 d=""/>
<path
 fill="none" stroke="#5c5c5c" stroke-width="0.5" stroke-linecap="butt" stroke-linejoin="miter"
 d=""/>
<path
 fill="none" stroke="#5c5c5c" stroke-width="0.5" stroke-linecap="butt" stroke-linejoin="miter"
 d=""/>
<path
 fill="none" stroke="#5c5c5c" stroke-width="0.5" stroke-linecap="butt" stroke-linejoin="miter"
 d=""/>
<path
 fill="none" stroke="#5c5c5c" stroke-width="0.5" stroke-linecap="butt" stroke-linejoin="miter"
 d=""/>
<path
 fill="none" stroke="#5c5c5c" stroke-width="0.5" stroke-linecap="butt" stroke-linejoin="miter"
 d=""/>
<path
 fill="none" stroke="#5c5c5c" stroke-width="0.5" stroke-linecap="butt" stroke-linejoin="miter"
 d=""/>
<path
 fill="none" stroke="#5c5c5c" stroke-width="0.5" stroke-linecap="butt" stroke-linejoin="miter"
 d=""/>
<path
 fill="none" stroke="#5c5c5c" stroke-width="0.5" stroke-linecap="butt" stroke-linejoin="miter"
 d=""/>
<path
 fill="none" stroke="#5c5c5c" stroke-width="0.5" stroke-linecap="butt" stroke-linejoin="miter"
 d=""/>
<path
 fill="none" stroke="#5c5c5c" stroke-width="0.5" stroke-linecap="butt" stroke-linejoin="miter"
 d=""/>
<path
 fill="none" stroke="#5c5c5c" stroke-width="0.5" stroke-linecap="butt" stroke-linejoin="miter"
 d=""/>
<path
 fill="none" stroke="#5c5c5c" stroke-width="0.5" stroke-linecap="butt" stroke-linejoin="miter"
 d=""/>
<path
 fill="none" stroke="#5c5c5c" stroke-width="0.5" stroke-linecap="butt" stroke-linejoin="miter"
 d=""/>
<path
 fill="none" stroke="#5c5c5c" stroke-width="0.5" stroke-linecap="butt" stroke-linejoin="miter"
 d=""/>
<path
 fill="none" stroke="#5c5c5c" stroke-width="0.5" stroke-linecap="butt" stroke-linejoin="miter"
 d=""/>
<path
 fill="none" stroke="#5c5c5c" stroke-width="0.5" stroke-linecap="butt" stroke-linejoin="miter"
 d=""/>
<path
 fill="none" stroke="#5c5c5c" stroke-width="0.5" stroke-linecap="butt" stroke-linejoin="miter"
 d=""/>
<path
 fill="none" stroke="#5c5c5c" stroke-width="0.5" stroke-linecap="butt" stroke-linejoin="miter"
 d=""/>
<path
 fill="none" stroke="#5c5c5c" stroke-width="0.5" stroke-linecap="butt" stroke-linejoin="miter"
 d=""/>
<path
 fill="none" stroke="#5c5c5c" stroke-width="0.5" stroke-linecap="butt" stroke-linejoin="miter"
 d=""/>
<path
 fill="none" stroke="#5c5c5c" stroke-width="0.5" stroke-linecap="butt" stroke-linejoin="miter"
 d=""/>
<path
 fill="none" stroke="#5c5c5c" stroke-width="0.5" stroke-linecap="butt" stroke-linejoin="miter"
 d=""/>
<path
 fill="none" stroke="#5c5c5c" stroke-width="0.5" stroke-linecap="butt" stroke-linejoin="miter"
 d=""/>
<path
 fill="none" stroke="#5c5c5c" stroke-width="0.5" stroke-linecap="butt" stroke-linejoin="miter"
 d=""/>
<path
 fill="none" stroke="#5c5c5c" stroke-width="0.5" stroke-linecap="butt" stroke-linejoin="miter"
 d=""/>
<path
 fill="none" stroke="#5c5c5c" stroke-width="0.5" stroke-linecap="butt" stroke-linejoin="miter"
 d=""/>
<path
 fill="none" stroke="#5c5c5c" stroke-width="0.5" stroke-linecap="butt" stroke-linejoin="miter"
 d=""/>
<path
 fill="none" stroke="#5c5c5c" stroke-width="0.5" stroke-linecap="butt" stroke-linejoin="miter"
 d=""/>
<path
 fill="none" stroke="#5c5c5c" stroke-width="0.5" stroke-linecap="butt" stroke-linejoin="miter"
 d=""/>
<path
 fill="none" stroke="#5c5c5c" stroke-width="0.5" stroke-linecap="butt" stroke-linejoin="miter"
 d=""/>
<path
 fill="none" stroke="#5c5c5c" stroke-width="0.5" stroke-linecap="butt" stroke-linejoin="miter"
 d=""/>
<path
 fill="none" stroke="#5c5c5c" stroke-width="0.5" stroke-linecap="butt" stroke-linejoin="miter"
 d=""/>
<path
 fill="none" stroke="#5c5c5c" stroke-width="0.5" stroke-linecap="butt" stroke-linejoin="miter"
 d=""/>
<path
 fill="none" stroke="#5c5c5c" stroke-width="0.5" stroke-linecap="butt" stroke-linejoin="miter"
 d=""/>
<path
 fill="none" stroke="#5c5c5c" stroke-width="0.5" stroke-linecap="butt" stroke-linejoin="miter"
 d=""/>
<path
 fill="none" stroke="#5c5c5c" stroke-width="0.5" stroke-linecap="butt" stroke-linejoin="miter"
 d=""/>
<path
 fill="none" stroke="#5c5c5c" stroke-width="0.5" stroke-linecap="butt" stroke-linejoin="miter"
 d=""/>
<path
 fill="none" stroke="#5c5c5c" stroke-width="0.5" stroke-linecap="butt" stroke-linejoin="miter"
 d=""/>
<path
 fill="none" stroke="#5c5c5c" stroke-width="0.5" stroke-linecap="butt" stroke-linejoin="miter"
 d=""/>
<path
 fill="none" stroke="#5c5c5c" stroke-width="0.5" stroke-linecap="butt" stroke-linejoin="miter"
 d=""/>
<path
 fill="none" stroke="#5c5c5c" stroke-width="0.5" stroke-linecap="butt" stroke-linejoin="miter"
 d=""/>
<path
 fill="none" stroke="#5c5c5c" stroke-width="0.5" stroke-linecap="butt" stroke-linejoin="miter"
 d=""/>
<path
 fill="none" stroke="#5c5c5c" stroke-width="0.5" stroke-linecap="butt" stroke-linejoin="miter"
 d=""/>
<path
 fill="none" stroke="#5c5c5c" stroke-width="0.5" stroke-linecap="butt" stroke-linejoin="miter"
 d=""/>
<path
 fill="none" stroke="#5c5c5c" stroke-width="0.5" stroke-linecap="butt" stroke-linejoin="miter"
 d=""/>
<path
 fill="none" stroke="#5c5c5c" stroke-width="0.5" stroke-linecap="butt" stroke-linejoin="miter"
 d=""/>
<path
 fill="none" stroke="#5c5c5c" stroke-width="0.5" stroke-linecap="butt" stroke-linejoin="miter"
 d=""/>
<path
 fill="none" stroke="#5c5c5c" stroke-width="0.5" stroke-linecap="butt" stroke-linejoin="miter"
 d=""/>
<text x="67.3492" y="172.986" id="text1002">
  <tspan x="67.3492" y="172.986" fill="#807b88"  font-variant="normal" font-weight="normal" font-style="normal" font-family="Bitstream Vera Sans" font-size="7.5" id="tspan1003">R</tspan>
</text>
<path
 fill="#d90000" stroke="#000000" stroke-width="0.72" stroke-linecap="butt" stroke-linejoin="miter"
 d="M 72.6142 162.734 A 2.5575,2.5575 0 0,1 67.4992,162.734A 2.5575,2.5575 0 0,1 72.6142,162.734Z"/>
<path
 fill="#d90000" stroke="#000000" stroke-width="0.72" stroke-linecap="butt" stroke-linejoin="miter"
 d="M 72.6142 155.174 A 2.5575,2.5575 0 0,1 67.4992,155.174A 2.5575,2.5575 0 0,1 72.6142,155.174Z"/>
<path
 fill="#d90000" stroke="#000000" stroke-width="0.72" stroke-linecap="butt" stroke-linejoin="miter"
 d="M 72.6142 147.614 A 2.5575,2.5575 0 0,1 67.4992,147.614A 2.5575,2.5575 0 0,1 72.6142,147.614Z"/>
<path
 fill="#d90000" stroke="#000000" stroke-width="0.72" stroke-linecap="butt" stroke-linejoin="miter"
 d="M 72.6142 140.054 A 2.5575,2.5575 0 0,1 67.4992,140.054A 2.5575,2.5575 0 0,1 72.6142,140.054Z"/>
<path
 fill="#d90000" stroke="#000000" stroke-width="0.72" stroke-linecap="butt" stroke-linejoin="miter"
 d="M 72.6142 132.494 A 2.5575,2.5575 0 0,1 67.4992,132.494A 2.5575,2.5575 0 0,1 72.6142,132.494Z"/>
<text x="67.3492" y="127.626" id="text1004">
  <tspan x="67.3492" y="127.626" fill="#807b88"  font-variant="normal" font-weight="normal" font-style="normal" font-family="Bitstream Vera Sans" font-size="7.5" id="tspan1005">R</tspan>
</text>
<text x="60.6153" y="124.19" id="text1006">
  <tspan x="60.6153" y="124.19" fill="#000000"  font-variant="normal" font-weight="normal" font-style="normal" font-family="Bitstream Vera Sans" font-size="7.5" id="tspan1007">U</tspan>
</text>
<text x="55.5143" y="118.61" id="text1008">
  <tspan x="55.5143" y="118.61" fill="#000000"  font-variant="normal" font-weight="normal" font-style="normal" font-family="Bitstream Vera Sans" font-size="7.5" id="tspan1009">R</tspan>
</text>
<text x="52.4842" y="111.596" id="text1010">
  <tspan x="52.4842" y="111.596" fill="#807b88"  font-variant="normal" font-weight="normal" font-style="normal" font-family="Bitstream Vera Sans" font-size="7.5" id="tspan1011">G</tspan>
</text>
<text x="45.3707" y="110.919" id="text1012">
  <tspan x="45.3707" y="110.919" fill="#807b88"  font-variant="normal" font-weight="normal" font-style="normal" font-family="Bitstream Vera Sans" font-size="7.5" id="tspan1013">Y</tspan>
</text>
<path
 fill="#d90000" stroke="#000000" stroke-width="0.72" stroke-linecap="butt" stroke-linejoin="miter"
 d="M 42.8998 107.551 A 2.5575,2.5575 0 0,1 37.7848,107.551A 2.5575,2.5575 0 0,1 42.8998,107.551Z"/>
<path
 fill="#d90000" stroke="#000000" stroke-width="0.72" stroke-linecap="butt" stroke-linejoin="miter"
 d="M 35.3701 106.874 A 2.5575,2.5575 0 0,1 30.2551,106.874A 2.5575,2.5575 0 0,1 35.3701,106.874Z"/>
<text x="26.9574" y="116.342" id="text1014">
  <tspan x="26.9574" y="116.342" fill="#000000"  font-variant="normal" font-weight="normal" font-style="normal" font-family="Bitstream Vera Sans" font-size="7.5" id="tspan1015">A</tspan>
</text>
<text x="19.553" y="118.653" id="text1016">
  <tspan x="19.553" y="118.653" fill="#807b88"  font-variant="normal" font-weight="normal" font-style="normal" font-family="Bitstream Vera Sans" font-size="7.5" id="tspan1017">R</tspan>
</text>
<path
 fill="#807b88" stroke="#000000" stroke-width="0.72" stroke-linecap="butt" stroke-linejoin="miter"
 d="M 18.1469 112.404 A 2.5575,2.5575 0 0,1 13.0319,112.404A 2.5575,2.5575 0 0,1 18.1469,112.404Z"/>
<text x="10.789" y="107.832" id="text1018">
  <tspan x="10.789" y="107.832" fill="#807b88"  font-variant="normal" font-weight="normal" font-style="normal" font-family="Bitstream Vera Sans" font-size="7.5" id="tspan1019">R</tspan>
</text>
<text x="11.8841" y="95.6407" id="text1020">
  <tspan x="11.8841" y="95.6407" fill="#807b88"  font-variant="normal" font-weight="normal" font-style="normal" font-family="Bitstream Vera Sans" font-size="7.5" id="tspan1021">R</tspan>
</text>
<path
 fill="#ffffff" stroke="#000000" stroke-width="0.72" stroke-linecap="butt" stroke-linejoin="miter"
 d="M 23.4632 88.7907 A 2.5575,2.5575 0 0,1 18.3482,88.7907A 2.5575,2.5575 0 0,1 23.4632,88.7907Z"/>
<text x="25.9342" y="92.1595" id="text1022">
  <tspan x="25.9342" y="92.1595" fill="#807b88"  font-variant="normal" font-weight="normal" font-style="normal" font-family="Bitstream Vera Sans" font-size="7.5" id="tspan1023">A</tspan>
</text>
<text x="31.2001" y="97.3757" id="text1024">
  <tspan x="31.2001" y="97.3757" fill="#807b88"  font-variant="normal" font-weight="normal" font-style="normal" font-family="Bitstream Vera Sans" font-size="7.5" id="tspan1025">R</tspan>
</text>
<path
 fill="#d90000" stroke="#000000" stroke-width="0.72" stroke-linecap="butt" stroke-linejoin="miter"
 d="M 43.9948 95.3596 A 2.5575,2.5575 0 0,1 38.8798,95.3596A 2.5575,2.5575 0 0,1 43.9948,95.3596Z"/>
<text x="46.2595" y="98.7284" id="text1026">
  <tspan x="46.2595" y="98.7284" fill="#807b88"  font-variant="normal" font-weight="normal" font-style="normal" font-family="Bitstream Vera Sans" font-size="7.5" id="tspan1027">R</tspan>
</text>
<text x="53.9954" y="99.4048" id="text1028">
  <tspan x="53.9954" y="99.4048" fill="#000000"  font-variant="normal" font-weight="normal" font-style="normal" font-family="Bitstream Vera Sans" font-size="7.5" id="tspan1029">Y</tspan>
</text>
<text x="57.8142" y="93.0053" id="text1030">
  <tspan x="57.8142" y="93.0053" fill="#807b88"  font-variant="normal" font-weight="normal" font-style="normal" font-family="Bitstream Vera Sans" font-size="7.5" id="tspan1031">R</tspan>
</text>
<path
 fill="#d90000" stroke="#000000" stroke-width="0.72" stroke-linecap="butt" stroke-linejoin="miter"
 d="M 69.0929 85.7314 A 2.5575,2.5575 0 0,1 63.9779,85.7314A 2.5575,2.5575 0 0,1 69.0929,85.7314Z"/>
<path
 fill="#d90000" stroke="#000000" stroke-width="0.72" stroke-linecap="butt" stroke-linejoin="miter"
 d="M 67.7456 78.2925 A 2.5575,2.5575 0 0,1 62.6306,78.2925A 2.5575,2.5575 0 0,1 67.7456,78.2925Z"/>
<path
 fill="#d90000" stroke="#000000" stroke-width="0.72" stroke-linecap="butt" stroke-linejoin="miter"
 d="M 66.3984 70.8535 A 2.5575,2.5575 0 0,1 61.2834,70.8535A 2.5575,2.5575 0 0,1 66.3984,70.8535Z"/>
<text x="59.7861" y="66.107" id="text1032">
  <tspan x="59.7861" y="66.107" fill="#807b88"  font-variant="normal" font-weight="normal" font-style="normal" font-family="Bitstream Vera Sans" font-size="7.5" id="tspan1033">R</tspan>
</text>
<path
 fill="#d90000" stroke="#000000" stroke-width="0.72" stroke-linecap="butt" stroke-linejoin="miter"
 d="M 63.7038 55.9755 A 2.5575,2.5575 0 0,1 58.5888,55.9755A 2.5575,2.5575 0 0,1 63.7038,55.9755Z"/>
<text x="52.808" y="53.8636" id="text1034">
  <tspan x="52.808" y="53.8636" fill="#000000"  font-variant="normal" font-weight="normal" font-style="normal" font-family="Bitstream Vera Sans" font-size="7.5" id="tspan1035">Y</tspan>
</text>
<text x="50.8599" y="46.507" id="text1036">
  <tspan x="50.8599" y="46.507" fill="#d90000"  font-variant="normal" font-weight="normal" font-style="normal" font-family="Bitstream Vera Sans" font-size="7.5" id="tspan1037">U</tspan>
</text>
<path
 fill="#d90000" stroke="#000000" stroke-width="0.72" stroke-linecap="butt" stroke-linejoin="miter"
 d="M 59.188 36.9028 A 2.5575,2.5575 0 0,1 54.073,36.9028A 2.5575,2.5575 0 0,1 59.188,36.9028Z"/>
<path
 fill="#d90000" stroke="#000000" stroke-width="0.72" stroke-linecap="butt" stroke-linejoin="miter"
 d="M 65.808 33.2519 A 2.5575,2.5575 0 0,1 60.693,33.2519A 2.5575,2.5575 0 0,1 65.808,33.2519Z"/>
<path
 fill="#d90000" stroke="#000000" stroke-width="0.72" stroke-linecap="butt" stroke-linejoin="miter"
 d="M 73.2879 34.3492 A 2.5575,2.5575 0 0,1 68.1729,34.3492A 2.5575,2.5575 0 0,1 73.2879,34.3492Z"/>
<text x="73.5217" y="42.4401" id="text1038">
  <tspan x="73.5217" y="42.4401" fill="#807b88"  font-variant="normal" font-weight="normal" font-style="normal" font-family="Bitstream Vera Sans" font-size="7.5" id="tspan1039">A</tspan>
</text>
<path
 fill="#d90000" stroke="#000000" stroke-width="0.72" stroke-linecap="butt" stroke-linejoin="miter"
 d="M 79.5293 47.2479 A 2.5575,2.5575 0 0,1 74.4143,47.2479A 2.5575,2.5575 0 0,1 79.5293,47.2479Z"/>
<path
 fill="#d90000" stroke="#000000" stroke-width="0.72" stroke-linecap="butt" stroke-linejoin="miter"
 d="M 75.7479 53.7942 A 2.5575,2.5575 0 0,1 70.6329,53.7942A 2.5575,2.5575 0 0,1 75.7479,53.7942Z"/>
<text x="72.0364" y="63.9257" id="text1040">
  <tspan x="72.0364" y="63.9257" fill="#807b88"  font-variant="normal" font-weight="normal" font-style="normal" font-family="Bitstream Vera Sans" font-size="7.5" id="tspan1041">Y</tspan>
</text>
<path
 fill="#d90000" stroke="#000000" stroke-width="0.72" stroke-linecap="butt" stroke-linejoin="miter"
 d="M 78.4424 68.6722 A 2.5575,2.5575 0 0,1 73.3274,68.6722A 2.5575,2.5575 0 0,1 78.4424,68.6722Z"/>
<path
 fill="#d90000" stroke="#000000" stroke-width="0.72" stroke-linecap="butt" stroke-linejoin="miter"
 d="M 79.7897 76.1112 A 2.5575,2.5575 0 0,1 74.6747,76.1112A 2.5575,2.5575 0 0,1 79.7897,76.1112Z"/>
<path
 fill="#d90000" stroke="#000000" stroke-width="0.72" stroke-linecap="butt" stroke-linejoin="miter"
 d="M 81.137 83.5502 A 2.5575,2.5575 0 0,1 76.022,83.5502A 2.5575,2.5575 0 0,1 81.137,83.5502Z"/>
<path
 fill="#d90000" stroke="#000000" stroke-width="0.72" stroke-linecap="butt" stroke-linejoin="miter"
 d="M 88.3754 85.7315 A 2.5575,2.5575 0 0,1 83.2604,85.7315A 2.5575,2.5575 0 0,1 88.3754,85.7315Z"/>
<path
 fill="#807b88" stroke="#000000" stroke-width="0.72" stroke-linecap="butt" stroke-linejoin="miter"
 d="M 94.3891 90.3128 A 2.5575,2.5575 0 0,1 89.2741,90.3128A 2.5575,2.5575 0 0,1 94.3891,90.3128Z"/>
<text x="93.1491" y="99.4048" id="text1042">
  <tspan x="93.1491" y="99.4048" fill="#807b88"  font-variant="normal" font-weight="normal" font-style="normal" font-family="Bitstream Vera Sans" font-size="7.5" id="tspan1043">R</tspan>
</text>
<text x="94.8803" y="106.809" id="text1044">
  <tspan x="94.8803" y="106.809" fill="#807b88"  font-variant="normal" font-weight="normal" font-style="normal" font-family="Bitstream Vera Sans" font-size="7.5" id="tspan1045">Y</tspan>
</text>
<text x="93.5053" y="114.278" id="text1046">
  <tspan x="93.5053" y="114.278" fill="#807b88"  font-variant="normal" font-weight="normal" font-style="normal" font-family="Bitstream Vera Sans" font-size="7.5" id="tspan1047">R</tspan>
</text>
<path
 fill="#d90000" stroke="#000000" stroke-width="0.72" stroke-linecap="butt" stroke-linejoin="miter"
 d="M 104.892 116.022 A 2.5575,2.5575 0 0,1 99.7769,116.022A 2.5575,2.5575 0 0,1 104.892,116.022Z"/>
<path
 fill="#d90000" stroke="#000000" stroke-width="0.72" stroke-linecap="butt" stroke-linejoin="miter"
 d="M 111.014 120.458 A 2.5575,2.5575 0 0,1 105.899,120.458A 2.5575,2.5575 0 0,1 111.014,120.458Z"/>
<text x="111.87" y="127.587" id="text1048">
  <tspan x="111.87" y="127.587" fill="#807b88"  font-variant="normal" font-weight="normal" font-style="normal" font-family="Bitstream Vera Sans" font-size="7.5" id="tspan1049">R</tspan>
</text>
<text x="117.782" y="132.023" id="text1050">
  <tspan x="117.782" y="132.023" fill="#807b88"  font-variant="normal" font-weight="normal" font-style="normal" font-family="Bitstream Vera Sans" font-size="7.5" id="tspan1051">G</tspan>
</text>
<text x="125.53" y="131.45" id="text1052">
  <tspan x="125.53" y="131.45" fill="#807b88"  font-variant="normal" font-weight="normal" font-style="normal" font-family="Bitstream Vera Sans" font-size="7.5" id="tspan1053">U</tspan>
</text>
<text x="131.88" y="135.553" id="text1054">
  <tspan x="131.88" y="135.553" fill="#807b88"  font-variant="normal" font-weight="normal" font-style="normal" font-family="Bitstream Vera Sans" font-size="7.5" id="tspan1055">U</tspan>
</text>
<text x="134.66" y="142.662" id="text1056">
  <tspan x="134.66" y="142.662" fill="#807b88"  font-variant="normal" font-weight="normal" font-style="normal" font-family="Bitstream Vera Sans" font-size="7.5" id="tspan1057">Y</tspan>
</text>
<text x="132.203" y="149.879" id="text1058">
  <tspan x="132.203" y="149.879" fill="#807b88"  font-variant="normal" font-weight="normal" font-style="normal" font-family="Bitstream Vera Sans" font-size="7.5" id="tspan1059">R</tspan>
</text>
<text x="126.251" y="154.265" id="text1060">
  <tspan x="126.251" y="154.265" fill="#807b88"  font-variant="normal" font-weight="normal" font-style="normal" font-family="Bitstream Vera Sans" font-size="7.5" id="tspan1061">A</tspan>
</text>
<path
 fill="#000000" stroke="#000000" stroke-width="0.72" stroke-linecap="butt" stroke-linejoin="miter"
 d="M 123.754 151.34 A 2.5575,2.5575 0 0,1 118.639,151.34A 2.5575,2.5575 0 0,1 123.754,151.34Z"/>
<text x="112.818" y="149.276" id="text1062">
  <tspan x="112.818" y="149.276" fill="#807b88"  font-variant="normal" font-weight="normal" font-style="normal" font-family="Bitstream Vera Sans" font-size="7.5" id="tspan1063">Y</tspan>
</text>
<text x="110.81" y="141.934" id="text1064">
  <tspan x="110.81" y="141.934" fill="#807b88"  font-variant="normal" font-weight="normal" font-style="normal" font-family="Bitstream Vera Sans" font-size="7.5" id="tspan1065">C</tspan>
</text>
<text x="104.894" y="137.498" id="text1066">
  <tspan x="104.894" y="137.498" fill="#000000"  font-variant="normal" font-weight="normal" font-style="normal" font-family="Bitstream Vera Sans" font-size="7.5" id="tspan1067">Y</tspan>
</text>
<path
 fill="#d90000" stroke="#000000" stroke-width="0.72" stroke-linecap="butt" stroke-linejoin="miter"
 d="M 103.831 130.369 A 2.5575,2.5575 0 0,1 98.7163,130.369A 2.5575,2.5575 0 0,1 103.831,130.369Z"/>
<path
 fill="#d90000" stroke="#000000" stroke-width="0.72" stroke-linecap="butt" stroke-linejoin="miter"
 d="M 97.7097 125.933 A 2.5575,2.5575 0 0,1 92.5947,125.933A 2.5575,2.5575 0 0,1 97.7097,125.933Z"/>
<text x="86.5293" y="124.19" id="text1068">
  <tspan x="86.5293" y="124.19" fill="#807b88"  font-variant="normal" font-weight="normal" font-style="normal" font-family="Bitstream Vera Sans" font-size="7.5" id="tspan1069">Y</tspan>
</text>
<text x="79.7954" y="127.626" id="text1070">
  <tspan x="79.7954" y="127.626" fill="#807b88"  font-variant="normal" font-weight="normal" font-style="normal" font-family="Bitstream Vera Sans" font-size="7.5" id="tspan1071">Y</tspan>
</text>
<path
 fill="#d90000" stroke="#000000" stroke-width="0.72" stroke-linecap="butt" stroke-linejoin="miter"
 d="M 84.8542 132.494 A 2.5575,2.5575 0 0,1 79.7392,132.494A 2.5575,2.5575 0 0,1 84.8542,132.494Z"/>
<path
 fill="#d90000" stroke="#000000" stroke-width="0.72" stroke-linecap="butt" stroke-linejoin="miter"
 d="M 84.8542 140.054 A 2.5575,2.5575 0 0,1 79.7392,140.054A 2.5575,2.5575 0 0,1 84.8542,140.054Z"/>
<path
 fill="#d90000" stroke="#000000" stroke-width="0.72" stroke-linecap="butt" stroke-linejoin="miter"
 d="M 84.8542 147.614 A 2.5575,2.5575 0 0,1 79.7392,147.614A 2.5575,2.5575 0 0,1 84.8542,147.614Z"/>
<path
 fill="#d90000" stroke="#000000" stroke-width="0.72" stroke-linecap="butt" stroke-linejoin="miter"
 d="M 84.8542 155.174 A 2.5575,2.5575 0 0,1 79.7392,155.174A 2.5575,2.5575 0 0,1 84.8542,155.174Z"/>
<path
 fill="#d90000" stroke="#000000" stroke-width="0.72" stroke-linecap="butt" stroke-linejoin="miter"
 d="M 84.8542 162.734 A 2.5575,2.5575 0 0,1 79.7392,162.734A 2.5575,2.5575 0 0,1 84.8542,162.734Z"/>
<text x="79.7954" y="172.986" id="text1072">
  <tspan x="79.7954" y="172.986" fill="#807b88"  font-variant="normal" font-weight="normal" font-style="normal" font-family="Bitstream Vera Sans" font-size="7.5" id="tspan1073">Y</tspan>
</text>
<text x="84.9349" y="178.332" id="text1074">
  <tspan x="84.9349" y="178.332" fill="#807b88"  font-variant="normal" font-weight="normal" font-style="normal" font-family="Bitstream Vera Sans" font-size="7.5" id="tspan1075">R</tspan>
</text>
<path
 fill="none" stroke="#000000" stroke-width="0.72" stroke-linecap="butt" stroke-linejoin="miter"
 d="M 70.0567 173.857 A 1.78191,1.78191 0 0,1 68.2747,175.639L 64.7109 175.639 "/>
<path
 fill="none" stroke="#000000" stroke-width="0.5" stroke-linecap="butt" stroke-linejoin="miter"
 d="M 21.925 119.695 L 21.5671 123.679 "/>
<path
 fill="none" stroke="#000000" stroke-width="0.5" stroke-linecap="butt" stroke-linejoin="miter"
 d="M 13.161 108.874 L 12.8032 112.858 "/>
<path
 fill="none" stroke="#000000" stroke-width="0.5" stroke-linecap="butt" stroke-linejoin="miter"
 d="M 14.9271 89.2132 L 15.2849 85.2293 "/>
<path
 fill="none" stroke="#000000" stroke-width="0.5" stroke-linecap="butt" stroke-linejoin="miter"
 d="M 62.5822 29.562 L 61.8694 25.626 "/>
<path
 fill="none" stroke="#000000" stroke-width="0.5" stroke-linecap="butt" stroke-linejoin="miter"
 d="M 137.521 130.526 L 140.651 128.035 "/>
<path
 fill="none" stroke="#000000" stroke-width="0.5" stroke-linecap="butt" stroke-linejoin="miter"
 d="M 140.91 139.884 L 144.909 139.794 "/>
<path
 fill="none" stroke="#000000" stroke-width="0.5" stroke-linecap="butt" stroke-linejoin="miter"
 d="M 87.6424 171.889 L 87.6424 167.889 "/>
<path
 fill="none" stroke="#000000" stroke-width="0.5" stroke-linecap="butt" stroke-linejoin="miter"
 d="M 101.131 104.027 L 105.129 103.931 "/>
<text x="14.9289" y="129.481" id="text1076">
  <tspan x="14.9289" y="129.481" fill="#000000"  font-variant="normal" font-weight="normal" font-style="normal" font-family="Bitstream Vera Sans" font-size="6" id="tspan1077">pk_1</tspan>
</text>
<text x="7.5" y="118.66" id="text1078">
  <tspan x="7.5" y="118.66" fill="#000000"  font-variant="normal" font-weight="normal" font-style="normal" font-family="Bitstream Vera Sans" font-size="6" id="tspan1079">tr_1</tspan>
</text>
<text x="10.2501" y="82.4933" id="text1080">
  <tspan x="10.2501" y="82.4933" fill="#000000"  font-variant="normal" font-weight="normal" font-style="normal" font-family="Bitstream Vera Sans" font-size="6" id="tspan1081">tr_2</tspan>
</text>
<text x="55.098" y="22.908" id="text1082">
  <tspan x="55.098" y="22.908" fill="#000000"  font-variant="normal" font-weight="normal" font-style="normal" font-family="Bitstream Vera Sans" font-size="6" id="tspan1083">pk_2</tspan>
</text>
<text x="141.825" y="125.859" id="text1084">
  <tspan x="141.825" y="125.859" fill="#000000"  font-variant="normal" font-weight="normal" font-style="normal" font-family="Bitstream Vera Sans" font-size="6" id="tspan1085">tr_1</tspan>
</text>
<text x="146.408" y="141.293" id="text1086">
  <tspan x="146.408" y="141.293" fill="#000000"  font-variant="normal" font-weight="normal" font-style="normal" font-family="Bitstream Vera Sans" font-size="6" id="tspan1087">tr_2</tspan>
</text>
<text x="81.1384" y="165.147" id="text1088">
  <tspan x="81.1384" y="165.147" fill="#000000"  font-variant="normal" font-weight="normal" font-style="normal" font-family="Bitstream Vera Sans" font-size="6" id="tspan1089">pk_2</tspan>
</text>
<text x="106.629" y="105.428" id="text1090">
  <tspan x="106.629" y="105.428" fill="#000000"  font-variant="normal" font-weight="normal" font-style="normal" font-family="Bitstream Vera Sans" font-size="6" id="tspan1091">pk_1</tspan>
</text>
<text x="57.6084" y="178.332" id="text1092">
  <tspan x="57.6084" y="178.332" fill="#000000"  font-variant="normal" font-weight="normal" font-style="normal" font-family="Bitstream Vera Sans" font-size="7.5" id="tspan1093">5&#x2032;</tspan>
</text>
<text x="164.246" y="8.616" id="text1094">
  <tspan x="164.246" y="8.616" fill="#000000"  font-variant="normal" font-weight="normal" font-style="normal" font-family="Bitstream Vera Sans" font-size="12" id="tspan1095">pk_1</tspan>
</text>
<path
 fill="#31a354" stroke="none"
 d="M 172.829 19.6875 L 172.829,19.6875L 190.904,19.6875L 190.904,25.0725L 172.829,25.0725Z"/>
<path
 fill="none" stroke="#000000" stroke-width="1.44" stroke-linecap="butt" stroke-linejoin="miter"
 d="M 179.922 22.38 L 183.81 22.38 "/>
<path
 fill="none" stroke="#5c5c5c" stroke-width="0.5" stroke-linecap="butt" stroke-linejoin="miter"
 d="M 171.996 18.6 L 171.996 26.16 "/>
<path
 fill="none" stroke="#5c5c5c" stroke-width="0.5" stroke-linecap="butt" stroke-linejoin="miter"
 d="M 191.736 26.16 L 191.736 18.6 "/>
<path
 fill="none" stroke="#5c5c5c" stroke-width="0.5" stroke-linecap="butt" stroke-linejoin="miter"
 d=""/>
<path
 fill="none" stroke="#5c5c5c" stroke-width="0.5" stroke-linecap="butt" stroke-linejoin="miter"
 d=""/>
<text x="173.039" y="25.0725" id="text1096">
  <tspan x="173.039" y="25.0725" fill="#807b88"  font-variant="normal" font-weight="normal" font-style="normal" font-family="Bitstream Vera Sans" font-size="7.5" id="tspan1097">R</tspan>
</text>
<text x="185.485" y="25.0725" id="text1098">
  <tspan x="185.485" y="25.0725" fill="#807b88"  font-variant="normal" font-weight="normal" font-style="normal" font-family="Bitstream Vera Sans" font-size="7.5" id="tspan1099">Y</tspan>
</text>
<text x="0" y="194.448" id="text1100">
  <tspan x="0" y="194.448" fill="#000000"  font-variant="normal" font-weight="normal" font-style="normal" font-family="Bitstream Vera Sans" font-size="12" id="tspan1101">pk_2</tspan>
</text>
<path
 fill="#31a354" stroke="none"
 d="M 8.5825 205.519 L 8.5825,205.519L 26.6575,205.519L 26.6575,210.904L 8.5825,210.904Z"/>
<path
 fill="none" stroke="#000000" stroke-width="1.44" stroke-linecap="butt" stroke-linejoin="miter"
 d="M 15.676 208.212 L 19.564 208.212 "/>
<path
 fill="none" stroke="#5c5c5c" stroke-width="0.5" stroke-linecap="butt" stroke-linejoin="miter"
 d="M 7.75 204.432 L 7.75 211.992 "/>
<path
 fill="none" stroke="#5c5c5c" stroke-width="0.5" stroke-linecap="butt" stroke-linejoin="miter"
 d="M 27.49 211.992 L 27.49 204.432 "/>
<path
 fill="none" stroke="#5c5c5c" stroke-width="0.5" stroke-linecap="butt" stroke-linejoin="miter"
 d=""/>
<path
 fill="none" stroke="#5c5c5c" stroke-width="0.5" stroke-linecap="butt" stroke-linejoin="miter"
 d=""/>
<path
 fill="#d90000" stroke="#000000" stroke-width="0.72" stroke-linecap="butt" stroke-linejoin="miter"
 d="M 14.0575 208.212 A 2.5575,2.5575 0 0,1 8.9425,208.212A 2.5575,2.5575 0 0,1 14.0575,208.212Z"/>
<text x="21.0325" y="210.904" id="text1102">
  <tspan x="21.0325" y="210.904" fill="#807b88"  font-variant="normal" font-weight="normal" font-style="normal" font-family="Bitstream Vera Sans" font-size="7.5" id="tspan1103">R</tspan>
</text>
<text x="164.246" y="194.448" id="text1104">
  <tspan x="164.246" y="194.448" fill="#000000"  font-variant="normal" font-weight="normal" font-style="normal" font-family="Bitstream Vera Sans" font-size="12" id="tspan1105">tr_1</tspan>
</text>
<path
 fill="#31a354" stroke="none"
 d="M 172.829 205.519 L 172.829,205.519L 190.904,205.519L 190.904,210.904L 172.829,210.904Z"/>
<path
 fill="none" stroke="#000000" stroke-width="1.44" stroke-linecap="butt" stroke-linejoin="miter"
 d="M 179.922 208.212 L 183.81 208.212 "/>
<path
 fill="none" stroke="#000000" stroke-width="1.44" stroke-linecap="butt" stroke-linejoin="miter"
 d="M 179.922 215.772 L 183.81 215.772 "/>
<path
 fill="none" stroke="#5c5c5c" stroke-width="0.5" stroke-linecap="butt" stroke-linejoin="miter"
 d="M 171.996 204.432 L 171.996 219.552 "/>
<path
 fill="none" stroke="#5c5c5c" stroke-width="0.5" stroke-linecap="butt" stroke-linejoin="miter"
 d="M 191.736 219.552 L 191.736 204.432 "/>
<path
 fill="none" stroke="#5c5c5c" stroke-width="0.5" stroke-linecap="butt" stroke-linejoin="miter"
 d=""/>
<path
 fill="none" stroke="#5c5c5c" stroke-width="0.5" stroke-linecap="butt" stroke-linejoin="miter"
 d=""/>
<path
 fill="none" stroke="#5c5c5c" stroke-width="0.5" stroke-linecap="butt" stroke-linejoin="miter"
 d=""/>
<path
 fill="none" stroke="#5c5c5c" stroke-width="0.5" stroke-linecap="butt" stroke-linejoin="miter"
 d=""/>
<text x="173.039" y="210.904" id="text1106">
  <tspan x="173.039" y="210.904" fill="#807b88"  font-variant="normal" font-weight="normal" font-style="normal" font-family="Bitstream Vera Sans" font-size="7.5" id="tspan1107">R</tspan>
</text>
<text x="173.039" y="218.464" id="text1108">
  <tspan x="173.039" y="218.464" fill="#807b88"  font-variant="normal" font-weight="normal" font-style="normal" font-family="Bitstream Vera Sans" font-size="7.5" id="tspan1109">R</tspan>
</text>
<text x="185.279" y="218.464" id="text1110">
  <tspan x="185.279" y="218.464" fill="#807b88"  font-variant="normal" font-weight="normal" font-style="normal" font-family="Bitstream Vera Sans" font-size="7.5" id="tspan1111">U</tspan>
</text>
<text x="185.485" y="210.904" id="text1112">
  <tspan x="185.485" y="210.904" fill="#807b88"  font-variant="normal" font-weight="normal" font-style="normal" font-family="Bitstream Vera Sans" font-size="7.5" id="tspan1113">Y</tspan>
</text>
<text x="0" y="235.668" id="text1114">
  <tspan x="0" y="235.668" fill="#000000"  font-variant="normal" font-weight="normal" font-style="normal" font-family="Bitstream Vera Sans" font-size="12" id="tspan1115">tr_2</tspan>
</text>
<path
 fill="#31a354" stroke="none"
 d="M 8.5825 246.739 L 8.5825,246.739L 26.6575,246.739L 26.6575,252.124L 8.5825,252.124Z"/>
<path
 fill="none" stroke="#000000" stroke-width="1.44" stroke-linecap="butt" stroke-linejoin="miter"
 d="M 15.676 249.432 L 19.564 249.432 "/>
<path
 fill="none" stroke="#5c5c5c" stroke-width="0.5" stroke-linecap="butt" stroke-linejoin="miter"
 d="M 7.75 245.652 L 7.75 253.212 "/>
<path
 fill="none" stroke="#5c5c5c" stroke-width="0.5" stroke-linecap="butt" stroke-linejoin="miter"
 d="M 27.49 253.212 L 27.49 245.652 "/>
<path
 fill="none" stroke="#5c5c5c" stroke-width="0.5" stroke-linecap="butt" stroke-linejoin="miter"
 d=""/>
<path
 fill="none" stroke="#5c5c5c" stroke-width="0.5" stroke-linecap="butt" stroke-linejoin="miter"
 d=""/>
<text x="8.7925" y="252.124" id="text1116">
  <tspan x="8.7925" y="252.124" fill="#807b88"  font-variant="normal" font-weight="normal" font-style="normal" font-family="Bitstream Vera Sans" font-size="7.5" id="tspan1117">R</tspan>
</text>
<text x="21.2388" y="252.124" id="text1118">
  <tspan x="21.2388" y="252.124" fill="#807b88"  font-variant="normal" font-weight="normal" font-style="normal" font-family="Bitstream Vera Sans" font-size="7.5" id="tspan1119">Y</tspan>
</text>
</svg>
