<svg
   xmlns:svg="http://www.w3.org/2000/svg"
   xmlns="http://www.w3.org/2000/svg"
   xmlns:xlink="http://www.w3.org/1999/xlink"
   version="1.0"
   width="73.5502mm"
   height="73.1652mm"
   id="svg2403"
   xml:space="preserve">
<text x="0" y="8.616" id="text1000">
  <tspan x="0" y="8.616" fill="#000000"  font-variant="normal" font-weight="normal" font-style="normal" font-family="Bitstream Vera Sans" font-size="12" id="tspan1001">RF00005_tRNA.cacofold</tspan>
</text>
<path
 fill="#31a354" stroke="none"
 d="M 73.4714 155.507 L 73.4714,155.507L 91.5464,155.507L 91.5464,160.892L 73.4714,160.892Z"/>
<path
 fill="none" stroke="#000000" stroke-width="1.44" stroke-linecap="butt" stroke-linejoin="miter"
 d="M 80.5649 158.199 L 84.4529 158.199 "/>
<path
 fill="#31a354" stroke="none"
 d="M 73.4714 147.947 L 73.4714,147.947L 91.5464,147.947L 91.5464,153.332L 73.4714,153.332Z"/>
<path
 fill="none" stroke="#000000" stroke-width="1.44" stroke-linecap="butt" stroke-linejoin="miter"
 d="M 80.5649 150.639 L 84.4529 150.639 "/>
<path
 fill="#31a354" stroke="none"
 d="M 73.4714 140.387 L 73.4714,140.387L 91.5464,140.387L 91.5464,145.772L 73.4714,145.772Z"/>
<path
 fill="none" stroke="#000000" stroke-width="1.44" stroke-linecap="butt" stroke-linejoin="miter"
 d="M 80.5649 143.079 L 84.4529 143.079 "/>
<path
 fill="#31a354" stroke="none"
 d="M 73.4714 132.827 L 73.4714,132.827L 91.5464,132.827L 91.5464,138.212L 73.4714,138.212Z"/>
<path
 fill="none" stroke="#000000" stroke-width="1.44" stroke-linecap="butt" stroke-linejoin="miter"
 d="M 80.5649 135.519 L 84.4529 135.519 "/>
<path
 fill="#31a354" stroke="none"
 d="M 73.4714 125.267 L 73.4714,125.267L 91.5464,125.267L 91.5464,130.652L 73.4714,130.652Z"/>
<path
 fill="none" stroke="#000000" stroke-width="1.44" stroke-linecap="butt" stroke-linejoin="miter"
 d="M 80.5649 127.959 L 84.4529 127.959 "/>
<path
 fill="#31a354" stroke="none"
 d="M 73.4714 117.707 L 73.4714,117.707L 91.5464,117.707L 91.5464,123.092L 73.4714,123.092Z"/>
<path
 fill="none" stroke="#000000" stroke-width="1.44" stroke-linecap="butt" stroke-linejoin="miter"
 d="M 80.5649 120.399 L 84.4529 120.399 "/>
<path
 fill="#31a354" stroke="none"
 d="M 73.4714 110.147 L 73.4714,110.147L 91.5464,110.147L 91.5464,115.532L 73.4714,115.532Z"/>
<path
 fill="none" stroke="#000000" stroke-width="1.44" stroke-linecap="butt" stroke-linejoin="miter"
 d="M 80.5649 112.839 L 84.4529 112.839 "/>
<path
 fill="#31a354" stroke="none"
 d="M 58.3365 99.4582 L 58.3365,99.4582L 59.9581,81.4054L 66.2262,81.9684L 64.6046,100.021Z"/>
<path
 fill="none" stroke="#000000" stroke-width="1.44" stroke-linecap="butt" stroke-linejoin="miter"
 d="M 62.1074 92.6495 L 62.4553 88.7771 "/>
<path
 fill="#31a354" stroke="none"
 d="M 50.8068 98.7818 L 50.8068,98.7818L 52.4284,80.7291L 58.6965,81.2921L 57.075,99.3448Z"/>
<path
 fill="none" stroke="#000000" stroke-width="1.44" stroke-linecap="butt" stroke-linejoin="miter"
 d="M 54.5778 91.9732 L 54.9256 88.1007 "/>
<path
 fill="#31a354" stroke="none"
 d="M 43.2771 98.1055 L 43.2771,98.1055L 44.8987,80.0527L 51.1668,80.6158L 49.5453,98.6685Z"/>
<path
 fill="none" stroke="#000000" stroke-width="1.44" stroke-linecap="butt" stroke-linejoin="miter"
 d="M 47.0481 91.2968 L 47.3959 87.4244 "/>
<path
 fill="#31a354" stroke="none"
 d="M 35.7475 97.4291 L 35.7475,97.4291L 37.369,79.3764L 43.6372,79.9394L 42.0156,97.9922Z"/>
<path
 fill="none" stroke="#000000" stroke-width="1.44" stroke-linecap="butt" stroke-linejoin="miter"
 d="M 39.5184 90.6205 L 39.8662 86.7481 "/>
<path
 fill="#31a354" stroke="none"
 d="M 69.0083 71.1296 L 69.0083,71.1296L 87.6464,67.7541L 88.7709,73.9631L 70.1328,77.3386Z"/>
<path
 fill="none" stroke="#000000" stroke-width="1.44" stroke-linecap="butt" stroke-linejoin="miter"
 d="M 76.9767 72.8928 L 80.8025 72.1999 "/>
<path
 fill="#31a354" stroke="none"
 d="M 67.6611 63.6906 L 67.6611,63.6906L 86.2991,60.3151L 87.4236,66.5241L 68.7856,69.8996Z"/>
<path
 fill="none" stroke="#000000" stroke-width="1.44" stroke-linecap="butt" stroke-linejoin="miter"
 d="M 75.6295 65.4538 L 79.4552 64.761 "/>
<path
 fill="#31a354" stroke="none"
 d="M 66.3138 56.2517 L 66.3138,56.2517L 84.9519,52.8762L 86.0764,59.0852L 67.4383,62.4607Z"/>
<path
 fill="none" stroke="#000000" stroke-width="1.44" stroke-linecap="butt" stroke-linejoin="miter"
 d="M 74.2822 58.0148 L 78.108 57.322 "/>
<path
 fill="#31a354" stroke="none"
 d="M 64.9666 48.8127 L 64.9666,48.8127L 83.6046,45.4372L 84.7291,51.6462L 66.0911,55.0217Z"/>
<path
 fill="none" stroke="#000000" stroke-width="1.44" stroke-linecap="butt" stroke-linejoin="miter"
 d="M 72.935 50.5759 L 76.7607 49.883 "/>
<path
 fill="#31a354" stroke="none"
 d="M 63.6193 41.3737 L 63.6193,41.3737L 82.2574,37.9982L 83.3819,44.2072L 64.7438,47.5827Z"/>
<path
 fill="none" stroke="#000000" stroke-width="1.44" stroke-linecap="butt" stroke-linejoin="miter"
 d="M 71.5877 43.1369 L 75.4135 42.444 "/>
<path
 fill="#31a354" stroke="none"
 d="M 107.384 98.1912 L 107.384,98.1912L 95.6336,114.406L 90.5241,110.703L 102.274,94.4886Z"/>
<path
 fill="none" stroke="#000000" stroke-width="1.44" stroke-linecap="butt" stroke-linejoin="miter"
 d="M 100.095 102.873 L 97.8131 106.021 "/>
<path
 fill="#31a354" stroke="none"
 d="M 113.505 102.627 L 113.505,102.627L 101.755,118.842L 96.6458,115.139L 108.396,98.9247Z"/>
<path
 fill="none" stroke="#000000" stroke-width="1.44" stroke-linecap="butt" stroke-linejoin="miter"
 d="M 106.216 107.309 L 103.935 110.457 "/>
<path
 fill="#31a354" stroke="none"
 d="M 119.627 107.063 L 119.627,107.063L 107.877,123.278L 102.767,119.575L 114.517,103.361Z"/>
<path
 fill="none" stroke="#000000" stroke-width="1.44" stroke-linecap="butt" stroke-linejoin="miter"
 d="M 112.338 111.745 L 110.056 114.894 "/>
<path
 fill="#31a354" stroke="none"
 d="M 125.749 111.499 L 125.749,111.499L 113.999,127.714L 108.889,124.011L 120.639,107.797Z"/>
<path
 fill="none" stroke="#000000" stroke-width="1.44" stroke-linecap="butt" stroke-linejoin="miter"
 d="M 118.46 116.181 L 116.178 119.33 "/>
<path
 fill="#31a354" stroke="none"
 d="M 131.87 115.936 L 131.87,115.936L 120.12,132.15L 115.011,128.448L 126.761,112.233Z"/>
<path
 fill="none" stroke="#000000" stroke-width="1.44" stroke-linecap="butt" stroke-linejoin="miter"
 d="M 124.581 120.617 L 122.3 123.766 "/>
<path
 fill="none" stroke="#5c5c5c" stroke-width="0.5" stroke-linecap="butt" stroke-linejoin="miter"
 d=""/>
<path
 fill="none" stroke="#5c5c5c" stroke-width="0.5" stroke-linecap="butt" stroke-linejoin="miter"
 d=""/>
<path
 fill="none" stroke="#5c5c5c" stroke-width="0.5" stroke-linecap="butt" stroke-linejoin="miter"
 d=""/>
<path
 fill="none" stroke="#5c5c5c" stroke-width="0.5" stroke-linecap="butt" stroke-linejoin="miter"
 d=""/>
<path
 fill="none" stroke="#5c5c5c" stroke-width="0.5" stroke-linecap="butt" stroke-linejoin="miter"
 d=""/>
<path
 fill="none" stroke="#5c5c5c" stroke-width="0.5" stroke-linecap="butt" stroke-linejoin="miter"
 d=""/>
<path
 fill="none" stroke="#5c5c5c" stroke-width="0.5" stroke-linecap="butt" stroke-linejoin="miter"
 d=""/>
<path
 fill="none" stroke="#5c5c5c" stroke-width="0.5" stroke-linecap="butt" stroke-linejoin="miter"
 d=""/>
<path
 fill="none" stroke="#5c5c5c" stroke-width="0.5" stroke-linecap="butt" stroke-linejoin="miter"
 d=""/>
<path
 fill="none" stroke="#5c5c5c" stroke-width="0.5" stroke-linecap="butt" stroke-linejoin="miter"
 d=""/>
<path
 fill="none" stroke="#5c5c5c" stroke-width="0.5" stroke-linecap="butt" stroke-linejoin="miter"
 d=""/>
<path
 fill="none" stroke="#5c5c5c" stroke-width="0.5" stroke-linecap="butt" stroke-linejoin="miter"
 d=""/>
<path
 fill="none" stroke="#5c5c5c" stroke-width="0.5" stroke-linecap="butt" stroke-linejoin="miter"
 d=""/>
<path
 fill="none" stroke="#5c5c5c" stroke-width="0.5" stroke-linecap="butt" stroke-linejoin="miter"
 d="M 29.0271 103.361 A 15.5943,15.5943 0 0,1 19.7154,99.8446"/>
<path
 fill="none" stroke="#5c5c5c" stroke-width="0.5" stroke-linecap="butt" stroke-linejoin="miter"
 d=""/>
<path
 fill="none" stroke="#5c5c5c" stroke-width="0.5" stroke-linecap="butt" stroke-linejoin="miter"
 d="M 15.3181 81.4981 A 15.5943,15.5943 0 0,1 22.024,74.1425"/>
<path
 fill="none" stroke="#5c5c5c" stroke-width="0.5" stroke-linecap="butt" stroke-linejoin="miter"
 d=""/>
<path
 fill="none" stroke="#5c5c5c" stroke-width="0.5" stroke-linecap="butt" stroke-linejoin="miter"
 d=""/>
<path
 fill="none" stroke="#5c5c5c" stroke-width="0.5" stroke-linecap="butt" stroke-linejoin="miter"
 d=""/>
<path
 fill="none" stroke="#5c5c5c" stroke-width="0.5" stroke-linecap="butt" stroke-linejoin="miter"
 d=""/>
<path
 fill="none" stroke="#5c5c5c" stroke-width="0.5" stroke-linecap="butt" stroke-linejoin="miter"
 d=""/>
<path
 fill="none" stroke="#5c5c5c" stroke-width="0.5" stroke-linecap="butt" stroke-linejoin="miter"
 d=""/>
<path
 fill="none" stroke="#5c5c5c" stroke-width="0.5" stroke-linecap="butt" stroke-linejoin="miter"
 d=""/>
<path
 fill="none" stroke="#5c5c5c" stroke-width="0.5" stroke-linecap="butt" stroke-linejoin="miter"
 d=""/>
<path
 fill="none" stroke="#5c5c5c" stroke-width="0.5" stroke-linecap="butt" stroke-linejoin="miter"
 d=""/>
<path
 fill="none" stroke="#5c5c5c" stroke-width="0.5" stroke-linecap="butt" stroke-linejoin="miter"
 d=""/>
<path
 fill="none" stroke="#5c5c5c" stroke-width="0.5" stroke-linecap="butt" stroke-linejoin="miter"
 d=""/>
<path
 fill="none" stroke="#5c5c5c" stroke-width="0.5" stroke-linecap="butt" stroke-linejoin="miter"
 d=""/>
<path
 fill="none" stroke="#5c5c5c" stroke-width="0.5" stroke-linecap="butt" stroke-linejoin="miter"
 d=""/>
<path
 fill="none" stroke="#5c5c5c" stroke-width="0.5" stroke-linecap="butt" stroke-linejoin="miter"
 d=""/>
<path
 fill="none" stroke="#5c5c5c" stroke-width="0.5" stroke-linecap="butt" stroke-linejoin="miter"
 d=""/>
<path
 fill="none" stroke="#5c5c5c" stroke-width="0.5" stroke-linecap="butt" stroke-linejoin="miter"
 d=""/>
<path
 fill="none" stroke="#5c5c5c" stroke-width="0.5" stroke-linecap="butt" stroke-linejoin="miter"
 d=""/>
<path
 fill="none" stroke="#5c5c5c" stroke-width="0.5" stroke-linecap="butt" stroke-linejoin="miter"
 d=""/>
<path
 fill="none" stroke="#5c5c5c" stroke-width="0.5" stroke-linecap="butt" stroke-linejoin="miter"
 d=""/>
<path
 fill="none" stroke="#5c5c5c" stroke-width="0.5" stroke-linecap="butt" stroke-linejoin="miter"
 d=""/>
<path
 fill="none" stroke="#5c5c5c" stroke-width="0.5" stroke-linecap="butt" stroke-linejoin="miter"
 d=""/>
<path
 fill="none" stroke="#5c5c5c" stroke-width="0.5" stroke-linecap="butt" stroke-linejoin="miter"
 d=""/>
<path
 fill="none" stroke="#5c5c5c" stroke-width="0.5" stroke-linecap="butt" stroke-linejoin="miter"
 d=""/>
<path
 fill="none" stroke="#5c5c5c" stroke-width="0.5" stroke-linecap="butt" stroke-linejoin="miter"
 d=""/>
<path
 fill="none" stroke="#5c5c5c" stroke-width="0.5" stroke-linecap="butt" stroke-linejoin="miter"
 d=""/>
<path
 fill="none" stroke="#5c5c5c" stroke-width="0.5" stroke-linecap="butt" stroke-linejoin="miter"
 d=""/>
<path
 fill="none" stroke="#5c5c5c" stroke-width="0.5" stroke-linecap="butt" stroke-linejoin="miter"
 d="M 106.957 87.4952 A 24.961,24.961 0 0,1 107.17,96.3893"/>
<path
 fill="none" stroke="#5c5c5c" stroke-width="0.5" stroke-linecap="butt" stroke-linejoin="miter"
 d=""/>
<path
 fill="none" stroke="#5c5c5c" stroke-width="0.5" stroke-linecap="butt" stroke-linejoin="miter"
 d=""/>
<path
 fill="none" stroke="#5c5c5c" stroke-width="0.5" stroke-linecap="butt" stroke-linejoin="miter"
 d=""/>
<path
 fill="none" stroke="#5c5c5c" stroke-width="0.5" stroke-linecap="butt" stroke-linejoin="miter"
 d=""/>
<path
 fill="none" stroke="#5c5c5c" stroke-width="0.5" stroke-linecap="butt" stroke-linejoin="miter"
 d=""/>
<path
 fill="none" stroke="#5c5c5c" stroke-width="0.5" stroke-linecap="butt" stroke-linejoin="miter"
 d=""/>
<path
 fill="none" stroke="#5c5c5c" stroke-width="0.5" stroke-linecap="butt" stroke-linejoin="miter"
 d="M 146.314 122.833 A 15.5943,15.5943 0 0,1 146.539,132.784"/>
<path
 fill="none" stroke="#5c5c5c" stroke-width="0.5" stroke-linecap="butt" stroke-linejoin="miter"
 d=""/>
<path
 fill="none" stroke="#5c5c5c" stroke-width="0.5" stroke-linecap="butt" stroke-linejoin="miter"
 d=""/>
<path
 fill="none" stroke="#5c5c5c" stroke-width="0.5" stroke-linecap="butt" stroke-linejoin="miter"
 d=""/>
<path
 fill="none" stroke="#5c5c5c" stroke-width="0.5" stroke-linecap="butt" stroke-linejoin="miter"
 d=""/>
<path
 fill="none" stroke="#5c5c5c" stroke-width="0.5" stroke-linecap="butt" stroke-linejoin="miter"
 d=""/>
<path
 fill="none" stroke="#5c5c5c" stroke-width="0.5" stroke-linecap="butt" stroke-linejoin="miter"
 d=""/>
<path
 fill="none" stroke="#5c5c5c" stroke-width="0.5" stroke-linecap="butt" stroke-linejoin="miter"
 d=""/>
<path
 fill="none" stroke="#5c5c5c" stroke-width="0.5" stroke-linecap="butt" stroke-linejoin="miter"
 d=""/>
<path
 fill="none" stroke="#5c5c5c" stroke-width="0.5" stroke-linecap="butt" stroke-linejoin="miter"
 d=""/>
<path
 fill="none" stroke="#5c5c5c" stroke-width="0.5" stroke-linecap="butt" stroke-linejoin="miter"
 d=""/>
<path
 fill="none" stroke="#5c5c5c" stroke-width="0.5" stroke-linecap="butt" stroke-linejoin="miter"
 d=""/>
<path
 fill="none" stroke="#5c5c5c" stroke-width="0.5" stroke-linecap="butt" stroke-linejoin="miter"
 d=""/>
<path
 fill="none" stroke="#5c5c5c" stroke-width="0.5" stroke-linecap="butt" stroke-linejoin="miter"
 d=""/>
<path
 fill="none" stroke="#5c5c5c" stroke-width="0.5" stroke-linecap="butt" stroke-linejoin="miter"
 d=""/>
<path
 fill="none" stroke="#5c5c5c" stroke-width="0.5" stroke-linecap="butt" stroke-linejoin="miter"
 d=""/>
<path
 fill="none" stroke="#5c5c5c" stroke-width="0.5" stroke-linecap="butt" stroke-linejoin="miter"
 d=""/>
<path
 fill="none" stroke="#5c5c5c" stroke-width="0.5" stroke-linecap="butt" stroke-linejoin="miter"
 d=""/>
<path
 fill="none" stroke="#5c5c5c" stroke-width="0.5" stroke-linecap="butt" stroke-linejoin="miter"
 d=""/>
<path
 fill="none" stroke="#5c5c5c" stroke-width="0.5" stroke-linecap="butt" stroke-linejoin="miter"
 d=""/>
<path
 fill="none" stroke="#5c5c5c" stroke-width="0.5" stroke-linecap="butt" stroke-linejoin="miter"
 d=""/>
<path
 fill="none" stroke="#5c5c5c" stroke-width="0.5" stroke-linecap="butt" stroke-linejoin="miter"
 d=""/>
<path
 fill="none" stroke="#5c5c5c" stroke-width="0.5" stroke-linecap="butt" stroke-linejoin="miter"
 d=""/>
<path
 fill="none" stroke="#5c5c5c" stroke-width="0.5" stroke-linecap="butt" stroke-linejoin="miter"
 d=""/>
<path
 fill="none" stroke="#5c5c5c" stroke-width="0.5" stroke-linecap="butt" stroke-linejoin="miter"
 d=""/>
<path
 fill="none" stroke="#5c5c5c" stroke-width="0.5" stroke-linecap="butt" stroke-linejoin="miter"
 d=""/>
<path
 fill="none" stroke="#5c5c5c" stroke-width="0.5" stroke-linecap="butt" stroke-linejoin="miter"
 d=""/>
<path
 fill="none" stroke="#5c5c5c" stroke-width="0.5" stroke-linecap="butt" stroke-linejoin="miter"
 d=""/>
<path
 fill="none" stroke="#5c5c5c" stroke-width="0.5" stroke-linecap="butt" stroke-linejoin="miter"
 d=""/>
<path
 fill="none" stroke="#5c5c5c" stroke-width="0.5" stroke-linecap="butt" stroke-linejoin="miter"
 d=""/>
<path
 fill="none" stroke="#5c5c5c" stroke-width="0.5" stroke-linecap="butt" stroke-linejoin="miter"
 d=""/>
<path
 fill="none" stroke="#5c5c5c" stroke-width="0.5" stroke-linecap="butt" stroke-linejoin="miter"
 d=""/>
<path
 fill="none" stroke="#5c5c5c" stroke-width="0.5" stroke-linecap="butt" stroke-linejoin="miter"
 d=""/>
<path
 fill="none" stroke="#5c5c5c" stroke-width="0.5" stroke-linecap="butt" stroke-linejoin="miter"
 d=""/>
<path
 fill="none" stroke="#5c5c5c" stroke-width="0.5" stroke-linecap="butt" stroke-linejoin="miter"
 d=""/>
<path
 fill="none" stroke="#5c5c5c" stroke-width="0.5" stroke-linecap="butt" stroke-linejoin="miter"
 d=""/>
<path
 fill="none" stroke="#5c5c5c" stroke-width="0.5" stroke-linecap="butt" stroke-linejoin="miter"
 d=""/>
<path
 fill="none" stroke="#5c5c5c" stroke-width="0.5" stroke-linecap="butt" stroke-linejoin="miter"
 d=""/>
<path
 fill="none" stroke="#5c5c5c" stroke-width="0.5" stroke-linecap="butt" stroke-linejoin="miter"
 d=""/>
<path
 fill="none" stroke="#5c5c5c" stroke-width="0.5" stroke-linecap="butt" stroke-linejoin="miter"
 d=""/>
<path
 fill="none" stroke="#5c5c5c" stroke-width="0.5" stroke-linecap="butt" stroke-linejoin="miter"
 d=""/>
<path
 fill="none" stroke="#5c5c5c" stroke-width="0.5" stroke-linecap="butt" stroke-linejoin="miter"
 d=""/>
<path
 fill="none" stroke="#5c5c5c" stroke-width="0.5" stroke-linecap="butt" stroke-linejoin="miter"
 d=""/>
<path
 fill="none" stroke="#5c5c5c" stroke-width="0.5" stroke-linecap="butt" stroke-linejoin="miter"
 d=""/>
<path
 fill="none" stroke="#5c5c5c" stroke-width="0.5" stroke-linecap="butt" stroke-linejoin="miter"
 d=""/>
<path
 fill="none" stroke="#5c5c5c" stroke-width="0.5" stroke-linecap="butt" stroke-linejoin="miter"
 d=""/>
<path
 fill="none" stroke="#5c5c5c" stroke-width="0.5" stroke-linecap="butt" stroke-linejoin="miter"
 d=""/>
<path
 fill="none" stroke="#5c5c5c" stroke-width="0.5" stroke-linecap="butt" stroke-linejoin="miter"
 d=""/>
<path
 fill="none" stroke="#5c5c5c" stroke-width="0.5" stroke-linecap="butt" stroke-linejoin="miter"
 d=""/>
<path
 fill="none" stroke="#5c5c5c" stroke-width="0.5" stroke-linecap="butt" stroke-linejoin="miter"
 d=""/>
<path
 fill="none" stroke="#5c5c5c" stroke-width="0.5" stroke-linecap="butt" stroke-linejoin="miter"
 d=""/>
<path
 fill="none" stroke="#5c5c5c" stroke-width="0.5" stroke-linecap="butt" stroke-linejoin="miter"
 d=""/>
<path
 fill="none" stroke="#5c5c5c" stroke-width="0.5" stroke-linecap="butt" stroke-linejoin="miter"
 d=""/>
<path
 fill="none" stroke="#5c5c5c" stroke-width="0.5" stroke-linecap="butt" stroke-linejoin="miter"
 d=""/>
<path
 fill="none" stroke="#5c5c5c" stroke-width="0.5" stroke-linecap="butt" stroke-linejoin="miter"
 d=""/>
<path
 fill="none" stroke="#5c5c5c" stroke-width="0.5" stroke-linecap="butt" stroke-linejoin="miter"
 d=""/>
<path
 fill="none" stroke="#5c5c5c" stroke-width="0.5" stroke-linecap="butt" stroke-linejoin="miter"
 d=""/>
<path
 fill="none" stroke="#5c5c5c" stroke-width="0.5" stroke-linecap="butt" stroke-linejoin="miter"
 d=""/>
<path
 fill="none" stroke="#5c5c5c" stroke-width="0.5" stroke-linecap="butt" stroke-linejoin="miter"
 d=""/>
<path
 fill="none" stroke="#5c5c5c" stroke-width="0.5" stroke-linecap="butt" stroke-linejoin="miter"
 d=""/>
<path
 fill="none" stroke="#5c5c5c" stroke-width="0.5" stroke-linecap="butt" stroke-linejoin="miter"
 d=""/>
<path
 fill="none" stroke="#5c5c5c" stroke-width="0.5" stroke-linecap="butt" stroke-linejoin="miter"
 d=""/>
<path
 fill="none" stroke="#5c5c5c" stroke-width="0.5" stroke-linecap="butt" stroke-linejoin="miter"
 d=""/>
<path
 fill="none" stroke="#5c5c5c" stroke-width="0.5" stroke-linecap="butt" stroke-linejoin="miter"
 d=""/>
<path
 fill="none" stroke="#5c5c5c" stroke-width="0.5" stroke-linecap="butt" stroke-linejoin="miter"
 d=""/>
<path
 fill="none" stroke="#5c5c5c" stroke-width="0.5" stroke-linecap="butt" stroke-linejoin="miter"
 d=""/>
<path
 fill="none" stroke="#5c5c5c" stroke-width="0.5" stroke-linecap="butt" stroke-linejoin="miter"
 d=""/>
<path
 fill="none" stroke="#5c5c5c" stroke-width="0.5" stroke-linecap="butt" stroke-linejoin="miter"
 d=""/>
<path
 fill="none" stroke="#5c5c5c" stroke-width="0.5" stroke-linecap="butt" stroke-linejoin="miter"
 d=""/>
<path
 fill="none" stroke="#5c5c5c" stroke-width="0.5" stroke-linecap="butt" stroke-linejoin="miter"
 d=""/>
<path
 fill="none" stroke="#5c5c5c" stroke-width="0.5" stroke-linecap="butt" stroke-linejoin="miter"
 d=""/>
<path
 fill="none" stroke="#5c5c5c" stroke-width="0.5" stroke-linecap="butt" stroke-linejoin="miter"
 d=""/>
<path
 fill="none" stroke="#5c5c5c" stroke-width="0.5" stroke-linecap="butt" stroke-linejoin="miter"
 d=""/>
<path
 fill="none" stroke="#5c5c5c" stroke-width="0.5" stroke-linecap="butt" stroke-linejoin="miter"
 d=""/>
<path
 fill="none" stroke="#5c5c5c" stroke-width="0.5" stroke-linecap="butt" stroke-linejoin="miter"
 d=""/>
<path
 fill="none" stroke="#5c5c5c" stroke-width="0.5" stroke-linecap="butt" stroke-linejoin="miter"
 d=""/>
<path
 fill="none" stroke="#5c5c5c" stroke-width="0.5" stroke-linecap="butt" stroke-linejoin="miter"
 d=""/>
<path
 fill="none" stroke="#5c5c5c" stroke-width="0.5" stroke-linecap="butt" stroke-linejoin="miter"
 d=""/>
<path
 fill="none" stroke="#5c5c5c" stroke-width="0.5" stroke-linecap="butt" stroke-linejoin="miter"
 d=""/>
<path
 fill="none" stroke="#5c5c5c" stroke-width="0.5" stroke-linecap="butt" stroke-linejoin="miter"
 d=""/>
<path
 fill="none" stroke="#5c5c5c" stroke-width="0.5" stroke-linecap="butt" stroke-linejoin="miter"
 d=""/>
<path
 fill="none" stroke="#5c5c5c" stroke-width="0.5" stroke-linecap="butt" stroke-linejoin="miter"
 d=""/>
<path
 fill="none" stroke="#5c5c5c" stroke-width="0.5" stroke-linecap="butt" stroke-linejoin="miter"
 d=""/>
<path
 fill="none" stroke="#5c5c5c" stroke-width="0.5" stroke-linecap="butt" stroke-linejoin="miter"
 d=""/>
<path
 fill="none" stroke="#5c5c5c" stroke-width="0.5" stroke-linecap="butt" stroke-linejoin="miter"
 d=""/>
<path
 fill="none" stroke="#5c5c5c" stroke-width="0.5" stroke-linecap="butt" stroke-linejoin="miter"
 d=""/>
<path
 fill="none" stroke="#5c5c5c" stroke-width="0.5" stroke-linecap="butt" stroke-linejoin="miter"
 d=""/>
<path
 fill="none" stroke="#5c5c5c" stroke-width="0.5" stroke-linecap="butt" stroke-linejoin="miter"
 d=""/>
<path
 fill="none" stroke="#5c5c5c" stroke-width="0.5" stroke-linecap="butt" stroke-linejoin="miter"
 d=""/>
<text x="73.6814" y="160.892" id="text1002">
  <tspan x="73.6814" y="160.892" fill="#807b88"  font-variant="normal" font-weight="normal" font-style="normal" font-family="Bitstream Vera Sans" font-size="7.5" id="tspan1003">R</tspan>
</text>
<path
 fill="#d90000" stroke="#000000" stroke-width="0.72" stroke-linecap="butt" stroke-linejoin="miter"
 d="M 78.9464 150.639 A 2.5575,2.5575 0 0,1 73.8314,150.639A 2.5575,2.5575 0 0,1 78.9464,150.639Z"/>
<path
 fill="#d90000" stroke="#000000" stroke-width="0.72" stroke-linecap="butt" stroke-linejoin="miter"
 d="M 78.9464 143.079 A 2.5575,2.5575 0 0,1 73.8314,143.079A 2.5575,2.5575 0 0,1 78.9464,143.079Z"/>
<path
 fill="#d90000" stroke="#000000" stroke-width="0.72" stroke-linecap="butt" stroke-linejoin="miter"
 d="M 78.9464 135.519 A 2.5575,2.5575 0 0,1 73.8314,135.519A 2.5575,2.5575 0 0,1 78.9464,135.519Z"/>
<path
 fill="#d90000" stroke="#000000" stroke-width="0.72" stroke-linecap="butt" stroke-linejoin="miter"
 d="M 78.9464 127.959 A 2.5575,2.5575 0 0,1 73.8314,127.959A 2.5575,2.5575 0 0,1 78.9464,127.959Z"/>
<path
 fill="#d90000" stroke="#000000" stroke-width="0.72" stroke-linecap="butt" stroke-linejoin="miter"
 d="M 78.9464 120.399 A 2.5575,2.5575 0 0,1 73.8314,120.399A 2.5575,2.5575 0 0,1 78.9464,120.399Z"/>
<text x="73.6814" y="115.532" id="text1004">
  <tspan x="73.6814" y="115.532" fill="#807b88"  font-variant="normal" font-weight="normal" font-style="normal" font-family="Bitstream Vera Sans" font-size="7.5" id="tspan1005">R</tspan>
</text>
<text x="66.9475" y="112.095" id="text1006">
  <tspan x="66.9475" y="112.095" fill="#000000"  font-variant="normal" font-weight="normal" font-style="normal" font-family="Bitstream Vera Sans" font-size="7.5" id="tspan1007">U</tspan>
</text>
<text x="61.8465" y="106.516" id="text1008">
  <tspan x="61.8465" y="106.516" fill="#000000"  font-variant="normal" font-weight="normal" font-style="normal" font-family="Bitstream Vera Sans" font-size="7.5" id="tspan1009">R</tspan>
</text>
<text x="58.8163" y="99.5013" id="text1010">
  <tspan x="58.8163" y="99.5013" fill="#807b88"  font-variant="normal" font-weight="normal" font-style="normal" font-family="Bitstream Vera Sans" font-size="7.5" id="tspan1011">G</tspan>
</text>
<text x="51.7029" y="98.8249" id="text1012">
  <tspan x="51.7029" y="98.8249" fill="#807b88"  font-variant="normal" font-weight="normal" font-style="normal" font-family="Bitstream Vera Sans" font-size="7.5" id="tspan1013">Y</tspan>
</text>
<path
 fill="#d90000" stroke="#000000" stroke-width="0.72" stroke-linecap="butt" stroke-linejoin="miter"
 d="M 49.232 95.4561 A 2.5575,2.5575 0 0,1 44.117,95.4561A 2.5575,2.5575 0 0,1 49.232,95.4561Z"/>
<path
 fill="#d90000" stroke="#000000" stroke-width="0.72" stroke-linecap="butt" stroke-linejoin="miter"
 d="M 41.7023 94.7797 A 2.5575,2.5575 0 0,1 36.5873,94.7797A 2.5575,2.5575 0 0,1 41.7023,94.7797Z"/>
<text x="30.4617" y="101.824" id="text1014">
  <tspan x="30.4617" y="101.824" fill="#d90000"  font-variant="normal" font-weight="normal" font-style="normal" font-family="Bitstream Vera Sans" font-size="7.5" id="tspan1015">A</tspan>
</text>
<text x="22.7004" y="101.55" id="text1016">
  <tspan x="22.7004" y="101.55" fill="#000000"  font-variant="normal" font-weight="normal" font-style="normal" font-family="Bitstream Vera Sans" font-size="7.5" id="tspan1017">R</tspan>
</text>
<path
 fill="#807b88" stroke="#000000" stroke-width="0.72" stroke-linecap="butt" stroke-linejoin="miter"
 d="M 22.1152 94.0692 A 2.5575,2.5575 0 0,1 17.0002,94.0692A 2.5575,2.5575 0 0,1 22.1152,94.0692Z"/>
<text x="14.8781" y="89.4099" id="text1018">
  <tspan x="14.8781" y="89.4099" fill="#807b88"  font-variant="normal" font-weight="normal" font-style="normal" font-family="Bitstream Vera Sans" font-size="7.5" id="tspan1019">G</tspan>
</text>
<text x="18.1321" y="82.4898" id="text1020">
  <tspan x="18.1321" y="82.4898" fill="#807b88"  font-variant="normal" font-weight="normal" font-style="normal" font-family="Bitstream Vera Sans" font-size="7.5" id="tspan1021">R</tspan>
</text>
<path
 fill="#807b88" stroke="#000000" stroke-width="0.72" stroke-linecap="butt" stroke-linejoin="miter"
 d="M 30.0071 76.1282 A 2.5575,2.5575 0 0,1 24.8921,76.1282A 2.5575,2.5575 0 0,1 30.0071,76.1282Z"/>
<text x="32.4313" y="79.8975" id="text1022">
  <tspan x="32.4313" y="79.8975" fill="#807b88"  font-variant="normal" font-weight="normal" font-style="normal" font-family="Bitstream Vera Sans" font-size="7.5" id="tspan1023">A</tspan>
</text>
<text x="37.5323" y="85.2813" id="text1024">
  <tspan x="37.5323" y="85.2813" fill="#807b88"  font-variant="normal" font-weight="normal" font-style="normal" font-family="Bitstream Vera Sans" font-size="7.5" id="tspan1025">R</tspan>
</text>
<path
 fill="#d90000" stroke="#000000" stroke-width="0.72" stroke-linecap="butt" stroke-linejoin="miter"
 d="M 50.327 83.2651 A 2.5575,2.5575 0 0,1 45.212,83.2651A 2.5575,2.5575 0 0,1 50.327,83.2651Z"/>
<text x="52.5917" y="86.634" id="text1026">
  <tspan x="52.5917" y="86.634" fill="#807b88"  font-variant="normal" font-weight="normal" font-style="normal" font-family="Bitstream Vera Sans" font-size="7.5" id="tspan1027">R</tspan>
</text>
<text x="60.3276" y="87.3103" id="text1028">
  <tspan x="60.3276" y="87.3103" fill="#807b88"  font-variant="normal" font-weight="normal" font-style="normal" font-family="Bitstream Vera Sans" font-size="7.5" id="tspan1029">Y</tspan>
</text>
<text x="64.1464" y="80.9109" id="text1030">
  <tspan x="64.1464" y="80.9109" fill="#807b88"  font-variant="normal" font-weight="normal" font-style="normal" font-family="Bitstream Vera Sans" font-size="7.5" id="tspan1031">R</tspan>
</text>
<path
 fill="#d90000" stroke="#000000" stroke-width="0.72" stroke-linecap="butt" stroke-linejoin="miter"
 d="M 75.4251 73.637 A 2.5575,2.5575 0 0,1 70.3101,73.637A 2.5575,2.5575 0 0,1 75.4251,73.637Z"/>
<path
 fill="#d90000" stroke="#000000" stroke-width="0.72" stroke-linecap="butt" stroke-linejoin="miter"
 d="M 74.0778 66.198 A 2.5575,2.5575 0 0,1 68.9628,66.198A 2.5575,2.5575 0 0,1 74.0778,66.198Z"/>
<path
 fill="#d90000" stroke="#000000" stroke-width="0.72" stroke-linecap="butt" stroke-linejoin="miter"
 d="M 72.7306 58.759 A 2.5575,2.5575 0 0,1 67.6156,58.759A 2.5575,2.5575 0 0,1 72.7306,58.759Z"/>
<text x="66.1183" y="54.0126" id="text1032">
  <tspan x="66.1183" y="54.0126" fill="#807b88"  font-variant="normal" font-weight="normal" font-style="normal" font-family="Bitstream Vera Sans" font-size="7.5" id="tspan1033">R</tspan>
</text>
<path
 fill="#d90000" stroke="#000000" stroke-width="0.72" stroke-linecap="butt" stroke-linejoin="miter"
 d="M 70.036 43.8811 A 2.5575,2.5575 0 0,1 64.921,43.8811A 2.5575,2.5575 0 0,1 70.036,43.8811Z"/>
<text x="59.1402" y="41.7692" id="text1034">
  <tspan x="59.1402" y="41.7692" fill="#000000"  font-variant="normal" font-weight="normal" font-style="normal" font-family="Bitstream Vera Sans" font-size="7.5" id="tspan1035">Y</tspan>
</text>
<text x="57.1921" y="34.4126" id="text1036">
  <tspan x="57.1921" y="34.4126" fill="#000000"  font-variant="normal" font-weight="normal" font-style="normal" font-family="Bitstream Vera Sans" font-size="7.5" id="tspan1037">U</tspan>
</text>
<path
 fill="#d90000" stroke="#000000" stroke-width="0.72" stroke-linecap="butt" stroke-linejoin="miter"
 d="M 65.5202 24.8084 A 2.5575,2.5575 0 0,1 60.4052,24.8084A 2.5575,2.5575 0 0,1 65.5202,24.8084Z"/>
<path
 fill="#d90000" stroke="#000000" stroke-width="0.72" stroke-linecap="butt" stroke-linejoin="miter"
 d="M 72.1402 21.1575 A 2.5575,2.5575 0 0,1 67.0252,21.1575A 2.5575,2.5575 0 0,1 72.1402,21.1575Z"/>
<path
 fill="#d90000" stroke="#000000" stroke-width="0.72" stroke-linecap="butt" stroke-linejoin="miter"
 d="M 79.6201 22.2548 A 2.5575,2.5575 0 0,1 74.5051,22.2548A 2.5575,2.5575 0 0,1 79.6201,22.2548Z"/>
<text x="79.8539" y="30.3457" id="text1038">
  <tspan x="79.8539" y="30.3457" fill="#807b88"  font-variant="normal" font-weight="normal" font-style="normal" font-family="Bitstream Vera Sans" font-size="7.5" id="tspan1039">A</tspan>
</text>
<path
 fill="#d90000" stroke="#000000" stroke-width="0.72" stroke-linecap="butt" stroke-linejoin="miter"
 d="M 85.8615 35.1534 A 2.5575,2.5575 0 0,1 80.7465,35.1534A 2.5575,2.5575 0 0,1 85.8615,35.1534Z"/>
<path
 fill="#d90000" stroke="#000000" stroke-width="0.72" stroke-linecap="butt" stroke-linejoin="miter"
 d="M 82.0801 41.6998 A 2.5575,2.5575 0 0,1 76.9651,41.6998A 2.5575,2.5575 0 0,1 82.0801,41.6998Z"/>
<text x="78.3686" y="51.8313" id="text1040">
  <tspan x="78.3686" y="51.8313" fill="#807b88"  font-variant="normal" font-weight="normal" font-style="normal" font-family="Bitstream Vera Sans" font-size="7.5" id="tspan1041">Y</tspan>
</text>
<path
 fill="#d90000" stroke="#000000" stroke-width="0.72" stroke-linecap="butt" stroke-linejoin="miter"
 d="M 84.7746 56.5778 A 2.5575,2.5575 0 0,1 79.6596,56.5778A 2.5575,2.5575 0 0,1 84.7746,56.5778Z"/>
<path
 fill="#d90000" stroke="#000000" stroke-width="0.72" stroke-linecap="butt" stroke-linejoin="miter"
 d="M 86.1219 64.0168 A 2.5575,2.5575 0 0,1 81.0069,64.0168A 2.5575,2.5575 0 0,1 86.1219,64.0168Z"/>
<path
 fill="#d90000" stroke="#000000" stroke-width="0.72" stroke-linecap="butt" stroke-linejoin="miter"
 d="M 87.4692 71.4557 A 2.5575,2.5575 0 0,1 82.3542,71.4557A 2.5575,2.5575 0 0,1 87.4692,71.4557Z"/>
<path
 fill="#d90000" stroke="#000000" stroke-width="0.72" stroke-linecap="butt" stroke-linejoin="miter"
 d="M 94.7076 73.637 A 2.5575,2.5575 0 0,1 89.5926,73.637A 2.5575,2.5575 0 0,1 94.7076,73.637Z"/>
<path
 fill="#807b88" stroke="#000000" stroke-width="0.72" stroke-linecap="butt" stroke-linejoin="miter"
 d="M 100.721 78.2184 A 2.5575,2.5575 0 0,1 95.6063,78.2184A 2.5575,2.5575 0 0,1 100.721,78.2184Z"/>
<text x="99.4813" y="87.3104" id="text1042">
  <tspan x="99.4813" y="87.3104" fill="#807b88"  font-variant="normal" font-weight="normal" font-style="normal" font-family="Bitstream Vera Sans" font-size="7.5" id="tspan1043">R</tspan>
</text>
<text x="101.213" y="94.715" id="text1044">
  <tspan x="101.213" y="94.715" fill="#000000"  font-variant="normal" font-weight="normal" font-style="normal" font-family="Bitstream Vera Sans" font-size="7.5" id="tspan1045">Y</tspan>
</text>
<text x="99.8375" y="102.184" id="text1046">
  <tspan x="99.8375" y="102.184" fill="#807b88"  font-variant="normal" font-weight="normal" font-style="normal" font-family="Bitstream Vera Sans" font-size="7.5" id="tspan1047">R</tspan>
</text>
<path
 fill="#d90000" stroke="#000000" stroke-width="0.72" stroke-linecap="butt" stroke-linejoin="miter"
 d="M 111.224 103.928 A 2.5575,2.5575 0 0,1 106.109,103.928A 2.5575,2.5575 0 0,1 111.224,103.928Z"/>
<path
 fill="#d90000" stroke="#000000" stroke-width="0.72" stroke-linecap="butt" stroke-linejoin="miter"
 d="M 117.346 108.364 A 2.5575,2.5575 0 0,1 112.231,108.364A 2.5575,2.5575 0 0,1 117.346,108.364Z"/>
<text x="118.202" y="115.492" id="text1048">
  <tspan x="118.202" y="115.492" fill="#000000"  font-variant="normal" font-weight="normal" font-style="normal" font-family="Bitstream Vera Sans" font-size="7.5" id="tspan1049">R</tspan>
</text>
<text x="124.114" y="119.928" id="text1050">
  <tspan x="124.114" y="119.928" fill="#807b88"  font-variant="normal" font-weight="normal" font-style="normal" font-family="Bitstream Vera Sans" font-size="7.5" id="tspan1051">G</tspan>
</text>
<text x="131.862" y="119.355" id="text1052">
  <tspan x="131.862" y="119.355" fill="#807b88"  font-variant="normal" font-weight="normal" font-style="normal" font-family="Bitstream Vera Sans" font-size="7.5" id="tspan1053">U</tspan>
</text>
<text x="138.212" y="123.459" id="text1054">
  <tspan x="138.212" y="123.459" fill="#807b88"  font-variant="normal" font-weight="normal" font-style="normal" font-family="Bitstream Vera Sans" font-size="7.5" id="tspan1055">U</tspan>
</text>
<text x="140.785" y="130.567" id="text1056">
  <tspan x="140.785" y="130.567" fill="#807b88"  font-variant="normal" font-weight="normal" font-style="normal" font-family="Bitstream Vera Sans" font-size="7.5" id="tspan1057">C</tspan>
</text>
<text x="138.535" y="137.784" id="text1058">
  <tspan x="138.535" y="137.784" fill="#000000"  font-variant="normal" font-weight="normal" font-style="normal" font-family="Bitstream Vera Sans" font-size="7.5" id="tspan1059">R</tspan>
</text>
<text x="132.584" y="142.17" id="text1060">
  <tspan x="132.584" y="142.17" fill="#000000"  font-variant="normal" font-weight="normal" font-style="normal" font-family="Bitstream Vera Sans" font-size="7.5" id="tspan1061">A</tspan>
</text>
<path
 fill="#000000" stroke="#000000" stroke-width="0.72" stroke-linecap="butt" stroke-linejoin="miter"
 d="M 130.086 139.245 A 2.5575,2.5575 0 0,1 124.971,139.245A 2.5575,2.5575 0 0,1 130.086,139.245Z"/>
<text x="119.151" y="137.182" id="text1062">
  <tspan x="119.151" y="137.182" fill="#807b88"  font-variant="normal" font-weight="normal" font-style="normal" font-family="Bitstream Vera Sans" font-size="7.5" id="tspan1063">Y</tspan>
</text>
<text x="117.142" y="129.84" id="text1064">
  <tspan x="117.142" y="129.84" fill="#807b88"  font-variant="normal" font-weight="normal" font-style="normal" font-family="Bitstream Vera Sans" font-size="7.5" id="tspan1065">C</tspan>
</text>
<text x="111.226" y="125.404" id="text1066">
  <tspan x="111.226" y="125.404" fill="#000000"  font-variant="normal" font-weight="normal" font-style="normal" font-family="Bitstream Vera Sans" font-size="7.5" id="tspan1067">Y</tspan>
</text>
<path
 fill="#d90000" stroke="#000000" stroke-width="0.72" stroke-linecap="butt" stroke-linejoin="miter"
 d="M 110.164 118.275 A 2.5575,2.5575 0 0,1 105.049,118.275A 2.5575,2.5575 0 0,1 110.164,118.275Z"/>
<path
 fill="#d90000" stroke="#000000" stroke-width="0.72" stroke-linecap="butt" stroke-linejoin="miter"
 d="M 104.042 113.839 A 2.5575,2.5575 0 0,1 98.9269,113.839A 2.5575,2.5575 0 0,1 104.042,113.839Z"/>
<text x="92.8615" y="112.095" id="text1068">
  <tspan x="92.8615" y="112.095" fill="#807b88"  font-variant="normal" font-weight="normal" font-style="normal" font-family="Bitstream Vera Sans" font-size="7.5" id="tspan1069">Y</tspan>
</text>
<text x="86.1276" y="115.532" id="text1070">
  <tspan x="86.1276" y="115.532" fill="#807b88"  font-variant="normal" font-weight="normal" font-style="normal" font-family="Bitstream Vera Sans" font-size="7.5" id="tspan1071">Y</tspan>
</text>
<path
 fill="#d90000" stroke="#000000" stroke-width="0.72" stroke-linecap="butt" stroke-linejoin="miter"
 d="M 91.1864 120.399 A 2.5575,2.5575 0 0,1 86.0714,120.399A 2.5575,2.5575 0 0,1 91.1864,120.399Z"/>
<path
 fill="#d90000" stroke="#000000" stroke-width="0.72" stroke-linecap="butt" stroke-linejoin="miter"
 d="M 91.1864 127.959 A 2.5575,2.5575 0 0,1 86.0714,127.959A 2.5575,2.5575 0 0,1 91.1864,127.959Z"/>
<path
 fill="#d90000" stroke="#000000" stroke-width="0.72" stroke-linecap="butt" stroke-linejoin="miter"
 d="M 91.1864 135.519 A 2.5575,2.5575 0 0,1 86.0714,135.519A 2.5575,2.5575 0 0,1 91.1864,135.519Z"/>
<path
 fill="#d90000" stroke="#000000" stroke-width="0.72" stroke-linecap="butt" stroke-linejoin="miter"
 d="M 91.1864 143.079 A 2.5575,2.5575 0 0,1 86.0714,143.079A 2.5575,2.5575 0 0,1 91.1864,143.079Z"/>
<path
 fill="#d90000" stroke="#000000" stroke-width="0.72" stroke-linecap="butt" stroke-linejoin="miter"
 d="M 91.1864 150.639 A 2.5575,2.5575 0 0,1 86.0714,150.639A 2.5575,2.5575 0 0,1 91.1864,150.639Z"/>
<text x="86.1276" y="160.892" id="text1072">
  <tspan x="86.1276" y="160.892" fill="#807b88"  font-variant="normal" font-weight="normal" font-style="normal" font-family="Bitstream Vera Sans" font-size="7.5" id="tspan1073">Y</tspan>
</text>
<path
 fill="#000000" stroke="#000000" stroke-width="0.72" stroke-linecap="butt" stroke-linejoin="miter"
 d="M 96.5321 163.545 A 2.5575,2.5575 0 0,1 91.4171,163.545A 2.5575,2.5575 0 0,1 96.5321,163.545Z"/>
<path
 fill="none" stroke="#000000" stroke-width="0.72" stroke-linecap="butt" stroke-linejoin="miter"
 d="M 76.3889 161.763 A 1.78191,1.78191 0 0,1 74.6069,163.545L 71.0431 163.545 "/>
<path
 fill="none" stroke="#000000" stroke-width="0.5" stroke-linecap="butt" stroke-linejoin="miter"
 d="M 24.0831 102.366 L 22.67 106.108 "/>
<path
 fill="none" stroke="#000000" stroke-width="0.5" stroke-linecap="butt" stroke-linejoin="miter"
 d="M 18.0684 77.2709 L 15.1125 74.576 "/>
<path
 fill="none" stroke="#000000" stroke-width="0.5" stroke-linecap="butt" stroke-linejoin="miter"
 d="M 147.242 127.79 L 151.241 127.7 "/>
<path
 fill="none" stroke="#000000" stroke-width="0.5" stroke-linecap="butt" stroke-linejoin="miter"
 d="M 107.463 91.9327 L 111.462 91.8369 "/>
<text x="15.636" y="111.819" id="text1074">
  <tspan x="15.636" y="111.819" fill="#000000"  font-variant="normal" font-weight="normal" font-style="normal" font-family="Bitstream Vera Sans" font-size="6" id="tspan1075">pk_1</tspan>
</text>
<text x="7.5" y="72.3234" id="text1076">
  <tspan x="7.5" y="72.3234" fill="#000000"  font-variant="normal" font-weight="normal" font-style="normal" font-family="Bitstream Vera Sans" font-size="6" id="tspan1077">pk_2</tspan>
</text>
<text x="152.741" y="129.199" id="text1078">
  <tspan x="152.741" y="129.199" fill="#000000"  font-variant="normal" font-weight="normal" font-style="normal" font-family="Bitstream Vera Sans" font-size="6" id="tspan1079">pk_2</tspan>
</text>
<text x="112.961" y="93.334" id="text1080">
  <tspan x="112.961" y="93.334" fill="#000000"  font-variant="normal" font-weight="normal" font-style="normal" font-family="Bitstream Vera Sans" font-size="6" id="tspan1081">pk_1</tspan>
</text>
<text x="63.9406" y="166.237" id="text1082">
  <tspan x="63.9406" y="166.237" fill="#000000"  font-variant="normal" font-weight="normal" font-style="normal" font-family="Bitstream Vera Sans" font-size="7.5" id="tspan1083">5&#x2032;</tspan>
</text>
<text x="173.249" y="8.616" id="text1084">
  <tspan x="173.249" y="8.616" fill="#000000"  font-variant="normal" font-weight="normal" font-style="normal" font-family="Bitstream Vera Sans" font-size="12" id="tspan1085">pk_1</tspan>
</text>
<path
 fill="#31a354" stroke="none"
 d="M 181.831 19.6875 L 181.831,19.6875L 199.906,19.6875L 199.906,25.0725L 181.831,25.0725Z"/>
<path
 fill="none" stroke="#000000" stroke-width="1.44" stroke-linecap="butt" stroke-linejoin="miter"
 d="M 188.925 22.38 L 192.813 22.38 "/>
<path
 fill="none" stroke="#5c5c5c" stroke-width="0.5" stroke-linecap="butt" stroke-linejoin="miter"
 d="M 180.999 18.6 L 180.999 26.16 "/>
<path
 fill="none" stroke="#5c5c5c" stroke-width="0.5" stroke-linecap="butt" stroke-linejoin="miter"
 d="M 200.739 26.16 L 200.739 18.6 "/>
<path
 fill="none" stroke="#5c5c5c" stroke-width="0.5" stroke-linecap="butt" stroke-linejoin="miter"
 d=""/>
<path
 fill="none" stroke="#5c5c5c" stroke-width="0.5" stroke-linecap="butt" stroke-linejoin="miter"
 d=""/>
<text x="182.041" y="25.0725" id="text1086">
  <tspan x="182.041" y="25.0725" fill="#000000"  font-variant="normal" font-weight="normal" font-style="normal" font-family="Bitstream Vera Sans" font-size="7.5" id="tspan1087">R</tspan>
</text>
<text x="194.487" y="25.0725" id="text1088">
  <tspan x="194.487" y="25.0725" fill="#000000"  font-variant="normal" font-weight="normal" font-style="normal" font-family="Bitstream Vera Sans" font-size="7.5" id="tspan1089">Y</tspan>
</text>
<text x="0" y="182.353" id="text1090">
  <tspan x="0" y="182.353" fill="#000000"  font-variant="normal" font-weight="normal" font-style="normal" font-family="Bitstream Vera Sans" font-size="12" id="tspan1091">pk_2</tspan>
</text>
<path
 fill="#31a354" stroke="none"
 d="M 8.5825 193.425 L 8.5825,193.425L 26.6575,193.425L 26.6575,198.81L 8.5825,198.81Z"/>
<path
 fill="none" stroke="#000000" stroke-width="1.44" stroke-linecap="butt" stroke-linejoin="miter"
 d="M 15.676 196.117 L 19.564 196.117 "/>
<path
 fill="none" stroke="#5c5c5c" stroke-width="0.5" stroke-linecap="butt" stroke-linejoin="miter"
 d="M 7.75 192.337 L 7.75 199.897 "/>
<path
 fill="none" stroke="#5c5c5c" stroke-width="0.5" stroke-linecap="butt" stroke-linejoin="miter"
 d="M 27.49 199.897 L 27.49 192.337 "/>
<path
 fill="none" stroke="#5c5c5c" stroke-width="0.5" stroke-linecap="butt" stroke-linejoin="miter"
 d=""/>
<path
 fill="none" stroke="#5c5c5c" stroke-width="0.5" stroke-linecap="butt" stroke-linejoin="miter"
 d=""/>
<text x="8.7925" y="198.81" id="text1092">
  <tspan x="8.7925" y="198.81" fill="#807b88"  font-variant="normal" font-weight="normal" font-style="normal" font-family="Bitstream Vera Sans" font-size="7.5" id="tspan1093">R</tspan>
</text>
<text x="21.0325" y="198.81" id="text1094">
  <tspan x="21.0325" y="198.81" fill="#807b88"  font-variant="normal" font-weight="normal" font-style="normal" font-family="Bitstream Vera Sans" font-size="7.5" id="tspan1095">C</tspan>
</text>
</svg>
