<svg
   xmlns:svg="http://www.w3.org/2000/svg"
   xmlns="http://www.w3.org/2000/svg"
   xmlns:xlink="http://www.w3.org/1999/xlink"
   version="1.0"
   width="69.7599mm"
   height="73.1652mm"
   id="svg2403"
   xml:space="preserve">
<text x="0" y="8.616" id="text1000">
  <tspan x="0" y="8.616" fill="#000000"  font-variant="normal" font-weight="normal" font-style="normal" font-family="Bitstream Vera Sans" font-size="12" id="tspan1001">RF00005_tRNA.cacofold</tspan>
</text>
<path
 fill="#31a354" stroke="none"
 d="M 65.3973 155.507 L 65.3973,155.507L 83.4723,155.507L 83.4723,160.892L 65.3973,160.892Z"/>
<path
 fill="none" stroke="#000000" stroke-width="1.44" stroke-linecap="butt" stroke-linejoin="miter"
 d="M 72.4908 158.199 L 76.3788 158.199 "/>
<path
 fill="#31a354" stroke="none"
 d="M 65.3973 147.947 L 65.3973,147.947L 83.4723,147.947L 83.4723,153.332L 65.3973,153.332Z"/>
<path
 fill="none" stroke="#000000" stroke-width="1.44" stroke-linecap="butt" stroke-linejoin="miter"
 d="M 72.4908 150.639 L 76.3788 150.639 "/>
<path
 fill="#31a354" stroke="none"
 d="M 65.3973 140.387 L 65.3973,140.387L 83.4723,140.387L 83.4723,145.772L 65.3973,145.772Z"/>
<path
 fill="none" stroke="#000000" stroke-width="1.44" stroke-linecap="butt" stroke-linejoin="miter"
 d="M 72.4908 143.079 L 76.3788 143.079 "/>
<path
 fill="#31a354" stroke="none"
 d="M 65.3973 132.827 L 65.3973,132.827L 83.4723,132.827L 83.4723,138.212L 65.3973,138.212Z"/>
<path
 fill="none" stroke="#000000" stroke-width="1.44" stroke-linecap="butt" stroke-linejoin="miter"
 d="M 72.4908 135.519 L 76.3788 135.519 "/>
<path
 fill="#31a354" stroke="none"
 d="M 65.3973 125.267 L 65.3973,125.267L 83.4723,125.267L 83.4723,130.652L 65.3973,130.652Z"/>
<path
 fill="none" stroke="#000000" stroke-width="1.44" stroke-linecap="butt" stroke-linejoin="miter"
 d="M 72.4908 127.959 L 76.3788 127.959 "/>
<path
 fill="#31a354" stroke="none"
 d="M 65.3973 117.707 L 65.3973,117.707L 83.4723,117.707L 83.4723,123.092L 65.3973,123.092Z"/>
<path
 fill="none" stroke="#000000" stroke-width="1.44" stroke-linecap="butt" stroke-linejoin="miter"
 d="M 72.4908 120.399 L 76.3788 120.399 "/>
<path
 fill="#31a354" stroke="none"
 d="M 65.3973 110.147 L 65.3973,110.147L 83.4723,110.147L 83.4723,115.532L 65.3973,115.532Z"/>
<path
 fill="none" stroke="#000000" stroke-width="1.44" stroke-linecap="butt" stroke-linejoin="miter"
 d="M 72.4908 112.839 L 76.3788 112.839 "/>
<path
 fill="#31a354" stroke="none"
 d="M 50.2624 99.4582 L 50.2624,99.4582L 51.884,81.4054L 58.1521,81.9684L 56.5306,100.021Z"/>
<path
 fill="none" stroke="#000000" stroke-width="1.44" stroke-linecap="butt" stroke-linejoin="miter"
 d="M 54.0334 92.6495 L 54.3812 88.7771 "/>
<path
 fill="#31a354" stroke="none"
 d="M 42.7327 98.7818 L 42.7327,98.7818L 44.3543,80.7291L 50.6224,81.2921L 49.0009,99.3448Z"/>
<path
 fill="none" stroke="#000000" stroke-width="1.44" stroke-linecap="butt" stroke-linejoin="miter"
 d="M 46.5037 91.9732 L 46.8515 88.1007 "/>
<path
 fill="#31a354" stroke="none"
 d="M 35.2031 98.1055 L 35.2031,98.1055L 36.8246,80.0527L 43.0927,80.6158L 41.4712,98.6685Z"/>
<path
 fill="none" stroke="#000000" stroke-width="1.44" stroke-linecap="butt" stroke-linejoin="miter"
 d="M 38.974 91.2968 L 39.3218 87.4244 "/>
<path
 fill="#31a354" stroke="none"
 d="M 27.6734 97.4291 L 27.6734,97.4291L 29.2949,79.3764L 35.5631,79.9394L 33.9415,97.9922Z"/>
<path
 fill="none" stroke="#000000" stroke-width="1.44" stroke-linecap="butt" stroke-linejoin="miter"
 d="M 31.4443 90.6205 L 31.7921 86.7481 "/>
<path
 fill="#31a354" stroke="none"
 d="M 8.35731 95.6941 L 8.35731,95.6941L 9.97888,77.6413L 16.247,78.2044L 14.6254,96.2571Z"/>
<path
 fill="none" stroke="#000000" stroke-width="1.44" stroke-linecap="butt" stroke-linejoin="miter"
 d="M 12.1282 88.8854 L 12.4761 85.013 "/>
<path
 fill="#31a354" stroke="none"
 d="M 60.9342 71.1296 L 60.9342,71.1296L 79.5723,67.7541L 80.6968,73.9631L 62.0587,77.3386Z"/>
<path
 fill="none" stroke="#000000" stroke-width="1.44" stroke-linecap="butt" stroke-linejoin="miter"
 d="M 68.9026 72.8928 L 72.7284 72.1999 "/>
<path
 fill="#31a354" stroke="none"
 d="M 59.587 63.6906 L 59.587,63.6906L 78.225,60.3151L 79.3495,66.5241L 60.7115,69.8996Z"/>
<path
 fill="none" stroke="#000000" stroke-width="1.44" stroke-linecap="butt" stroke-linejoin="miter"
 d="M 67.5554 65.4538 L 71.3811 64.761 "/>
<path
 fill="#31a354" stroke="none"
 d="M 58.2397 56.2517 L 58.2397,56.2517L 76.8778,52.8762L 78.0023,59.0852L 59.3642,62.4607Z"/>
<path
 fill="none" stroke="#000000" stroke-width="1.44" stroke-linecap="butt" stroke-linejoin="miter"
 d="M 66.2081 58.0148 L 70.0339 57.322 "/>
<path
 fill="#31a354" stroke="none"
 d="M 56.8925 48.8127 L 56.8925,48.8127L 75.5305,45.4372L 76.655,51.6462L 58.017,55.0217Z"/>
<path
 fill="none" stroke="#000000" stroke-width="1.44" stroke-linecap="butt" stroke-linejoin="miter"
 d="M 64.8609 50.5759 L 68.6866 49.883 "/>
<path
 fill="#31a354" stroke="none"
 d="M 55.5452 41.3737 L 55.5452,41.3737L 74.1833,37.9982L 75.3078,44.2072L 56.6697,47.5827Z"/>
<path
 fill="none" stroke="#000000" stroke-width="1.44" stroke-linecap="butt" stroke-linejoin="miter"
 d="M 63.5136 43.1369 L 67.3394 42.444 "/>
<path
 fill="#31a354" stroke="none"
 d="M 99.3095 98.1912 L 99.3095,98.1912L 87.5595,114.406L 82.45,110.703L 94.2,94.4886Z"/>
<path
 fill="none" stroke="#000000" stroke-width="1.44" stroke-linecap="butt" stroke-linejoin="miter"
 d="M 92.0205 102.873 L 89.739 106.021 "/>
<path
 fill="#31a354" stroke="none"
 d="M 105.431 102.627 L 105.431,102.627L 93.6812,118.842L 88.5717,115.139L 100.322,98.9247Z"/>
<path
 fill="none" stroke="#000000" stroke-width="1.44" stroke-linecap="butt" stroke-linejoin="miter"
 d="M 98.1421 107.309 L 95.8607 110.457 "/>
<path
 fill="#31a354" stroke="none"
 d="M 111.553 107.063 L 111.553,107.063L 99.8028,123.278L 94.6933,119.575L 106.443,103.361Z"/>
<path
 fill="none" stroke="#000000" stroke-width="1.44" stroke-linecap="butt" stroke-linejoin="miter"
 d="M 104.264 111.745 L 101.982 114.894 "/>
<path
 fill="#31a354" stroke="none"
 d="M 117.674 111.499 L 117.674,111.499L 105.924,127.714L 100.815,124.011L 112.565,107.797Z"/>
<path
 fill="none" stroke="#000000" stroke-width="1.44" stroke-linecap="butt" stroke-linejoin="miter"
 d="M 110.385 116.181 L 108.104 119.33 "/>
<path
 fill="#31a354" stroke="none"
 d="M 123.796 115.936 L 123.796,115.936L 112.046,132.15L 106.937,128.448L 118.687,112.233Z"/>
<path
 fill="none" stroke="#000000" stroke-width="1.44" stroke-linecap="butt" stroke-linejoin="miter"
 d="M 116.507 120.617 L 114.226 123.766 "/>
<path
 fill="none" stroke="#5c5c5c" stroke-width="0.5" stroke-linecap="butt" stroke-linejoin="miter"
 d=""/>
<path
 fill="none" stroke="#5c5c5c" stroke-width="0.5" stroke-linecap="butt" stroke-linejoin="miter"
 d=""/>
<path
 fill="none" stroke="#5c5c5c" stroke-width="0.5" stroke-linecap="butt" stroke-linejoin="miter"
 d=""/>
<path
 fill="none" stroke="#5c5c5c" stroke-width="0.5" stroke-linecap="butt" stroke-linejoin="miter"
 d=""/>
<path
 fill="none" stroke="#5c5c5c" stroke-width="0.5" stroke-linecap="butt" stroke-linejoin="miter"
 d=""/>
<path
 fill="none" stroke="#5c5c5c" stroke-width="0.5" stroke-linecap="butt" stroke-linejoin="miter"
 d=""/>
<path
 fill="none" stroke="#5c5c5c" stroke-width="0.5" stroke-linecap="butt" stroke-linejoin="miter"
 d=""/>
<path
 fill="none" stroke="#5c5c5c" stroke-width="0.5" stroke-linecap="butt" stroke-linejoin="miter"
 d=""/>
<path
 fill="none" stroke="#5c5c5c" stroke-width="0.5" stroke-linecap="butt" stroke-linejoin="miter"
 d=""/>
<path
 fill="none" stroke="#5c5c5c" stroke-width="0.5" stroke-linecap="butt" stroke-linejoin="miter"
 d=""/>
<path
 fill="none" stroke="#5c5c5c" stroke-width="0.5" stroke-linecap="butt" stroke-linejoin="miter"
 d=""/>
<path
 fill="none" stroke="#5c5c5c" stroke-width="0.5" stroke-linecap="butt" stroke-linejoin="miter"
 d=""/>
<path
 fill="none" stroke="#5c5c5c" stroke-width="0.5" stroke-linecap="butt" stroke-linejoin="miter"
 d=""/>
<path
 fill="none" stroke="#5c5c5c" stroke-width="0.5" stroke-linecap="butt" stroke-linejoin="miter"
 d="M 25.4983 107.011 A 13.4513,13.4513 0 0,1 15.0581,106.073"/>
<path
 fill="none" stroke="#5c5c5c" stroke-width="0.5" stroke-linecap="butt" stroke-linejoin="miter"
 d=""/>
<path
 fill="none" stroke="#5c5c5c" stroke-width="0.5" stroke-linecap="butt" stroke-linejoin="miter"
 d=""/>
<path
 fill="none" stroke="#5c5c5c" stroke-width="0.5" stroke-linecap="butt" stroke-linejoin="miter"
 d="M 7.5 83.0786 A 15.2167,15.2167 0 0,1 13.592,75.1077"/>
<path
 fill="none" stroke="#5c5c5c" stroke-width="0.5" stroke-linecap="butt" stroke-linejoin="miter"
 d=""/>
<path
 fill="none" stroke="#5c5c5c" stroke-width="0.5" stroke-linecap="butt" stroke-linejoin="miter"
 d=""/>
<path
 fill="none" stroke="#5c5c5c" stroke-width="0.5" stroke-linecap="butt" stroke-linejoin="miter"
 d=""/>
<path
 fill="none" stroke="#5c5c5c" stroke-width="0.5" stroke-linecap="butt" stroke-linejoin="miter"
 d=""/>
<path
 fill="none" stroke="#5c5c5c" stroke-width="0.5" stroke-linecap="butt" stroke-linejoin="miter"
 d=""/>
<path
 fill="none" stroke="#5c5c5c" stroke-width="0.5" stroke-linecap="butt" stroke-linejoin="miter"
 d=""/>
<path
 fill="none" stroke="#5c5c5c" stroke-width="0.5" stroke-linecap="butt" stroke-linejoin="miter"
 d=""/>
<path
 fill="none" stroke="#5c5c5c" stroke-width="0.5" stroke-linecap="butt" stroke-linejoin="miter"
 d=""/>
<path
 fill="none" stroke="#5c5c5c" stroke-width="0.5" stroke-linecap="butt" stroke-linejoin="miter"
 d=""/>
<path
 fill="none" stroke="#5c5c5c" stroke-width="0.5" stroke-linecap="butt" stroke-linejoin="miter"
 d=""/>
<path
 fill="none" stroke="#5c5c5c" stroke-width="0.5" stroke-linecap="butt" stroke-linejoin="miter"
 d=""/>
<path
 fill="none" stroke="#5c5c5c" stroke-width="0.5" stroke-linecap="butt" stroke-linejoin="miter"
 d=""/>
<path
 fill="none" stroke="#5c5c5c" stroke-width="0.5" stroke-linecap="butt" stroke-linejoin="miter"
 d=""/>
<path
 fill="none" stroke="#5c5c5c" stroke-width="0.5" stroke-linecap="butt" stroke-linejoin="miter"
 d=""/>
<path
 fill="none" stroke="#5c5c5c" stroke-width="0.5" stroke-linecap="butt" stroke-linejoin="miter"
 d=""/>
<path
 fill="none" stroke="#5c5c5c" stroke-width="0.5" stroke-linecap="butt" stroke-linejoin="miter"
 d=""/>
<path
 fill="none" stroke="#5c5c5c" stroke-width="0.5" stroke-linecap="butt" stroke-linejoin="miter"
 d=""/>
<path
 fill="none" stroke="#5c5c5c" stroke-width="0.5" stroke-linecap="butt" stroke-linejoin="miter"
 d=""/>
<path
 fill="none" stroke="#5c5c5c" stroke-width="0.5" stroke-linecap="butt" stroke-linejoin="miter"
 d=""/>
<path
 fill="none" stroke="#5c5c5c" stroke-width="0.5" stroke-linecap="butt" stroke-linejoin="miter"
 d=""/>
<path
 fill="none" stroke="#5c5c5c" stroke-width="0.5" stroke-linecap="butt" stroke-linejoin="miter"
 d=""/>
<path
 fill="none" stroke="#5c5c5c" stroke-width="0.5" stroke-linecap="butt" stroke-linejoin="miter"
 d=""/>
<path
 fill="none" stroke="#5c5c5c" stroke-width="0.5" stroke-linecap="butt" stroke-linejoin="miter"
 d=""/>
<path
 fill="none" stroke="#5c5c5c" stroke-width="0.5" stroke-linecap="butt" stroke-linejoin="miter"
 d=""/>
<path
 fill="none" stroke="#5c5c5c" stroke-width="0.5" stroke-linecap="butt" stroke-linejoin="miter"
 d=""/>
<path
 fill="none" stroke="#5c5c5c" stroke-width="0.5" stroke-linecap="butt" stroke-linejoin="miter"
 d=""/>
<path
 fill="none" stroke="#5c5c5c" stroke-width="0.5" stroke-linecap="butt" stroke-linejoin="miter"
 d="M 98.8827 87.4952 A 24.961,24.961 0 0,1 99.0956,96.3893"/>
<path
 fill="none" stroke="#5c5c5c" stroke-width="0.5" stroke-linecap="butt" stroke-linejoin="miter"
 d=""/>
<path
 fill="none" stroke="#5c5c5c" stroke-width="0.5" stroke-linecap="butt" stroke-linejoin="miter"
 d=""/>
<path
 fill="none" stroke="#5c5c5c" stroke-width="0.5" stroke-linecap="butt" stroke-linejoin="miter"
 d=""/>
<path
 fill="none" stroke="#5c5c5c" stroke-width="0.5" stroke-linecap="butt" stroke-linejoin="miter"
 d=""/>
<path
 fill="none" stroke="#5c5c5c" stroke-width="0.5" stroke-linecap="butt" stroke-linejoin="miter"
 d=""/>
<path
 fill="none" stroke="#5c5c5c" stroke-width="0.5" stroke-linecap="butt" stroke-linejoin="miter"
 d=""/>
<path
 fill="none" stroke="#5c5c5c" stroke-width="0.5" stroke-linecap="butt" stroke-linejoin="miter"
 d="M 138.24 122.833 A 15.5943,15.5943 0 0,1 138.465,132.784"/>
<path
 fill="none" stroke="#5c5c5c" stroke-width="0.5" stroke-linecap="butt" stroke-linejoin="miter"
 d=""/>
<path
 fill="none" stroke="#5c5c5c" stroke-width="0.5" stroke-linecap="butt" stroke-linejoin="miter"
 d=""/>
<path
 fill="none" stroke="#5c5c5c" stroke-width="0.5" stroke-linecap="butt" stroke-linejoin="miter"
 d=""/>
<path
 fill="none" stroke="#5c5c5c" stroke-width="0.5" stroke-linecap="butt" stroke-linejoin="miter"
 d=""/>
<path
 fill="none" stroke="#5c5c5c" stroke-width="0.5" stroke-linecap="butt" stroke-linejoin="miter"
 d=""/>
<path
 fill="none" stroke="#5c5c5c" stroke-width="0.5" stroke-linecap="butt" stroke-linejoin="miter"
 d=""/>
<path
 fill="none" stroke="#5c5c5c" stroke-width="0.5" stroke-linecap="butt" stroke-linejoin="miter"
 d=""/>
<path
 fill="none" stroke="#5c5c5c" stroke-width="0.5" stroke-linecap="butt" stroke-linejoin="miter"
 d=""/>
<path
 fill="none" stroke="#5c5c5c" stroke-width="0.5" stroke-linecap="butt" stroke-linejoin="miter"
 d=""/>
<path
 fill="none" stroke="#5c5c5c" stroke-width="0.5" stroke-linecap="butt" stroke-linejoin="miter"
 d=""/>
<path
 fill="none" stroke="#5c5c5c" stroke-width="0.5" stroke-linecap="butt" stroke-linejoin="miter"
 d=""/>
<path
 fill="none" stroke="#5c5c5c" stroke-width="0.5" stroke-linecap="butt" stroke-linejoin="miter"
 d=""/>
<path
 fill="none" stroke="#5c5c5c" stroke-width="0.5" stroke-linecap="butt" stroke-linejoin="miter"
 d=""/>
<path
 fill="none" stroke="#5c5c5c" stroke-width="0.5" stroke-linecap="butt" stroke-linejoin="miter"
 d=""/>
<path
 fill="none" stroke="#5c5c5c" stroke-width="0.5" stroke-linecap="butt" stroke-linejoin="miter"
 d=""/>
<path
 fill="none" stroke="#5c5c5c" stroke-width="0.5" stroke-linecap="butt" stroke-linejoin="miter"
 d=""/>
<path
 fill="none" stroke="#5c5c5c" stroke-width="0.5" stroke-linecap="butt" stroke-linejoin="miter"
 d=""/>
<path
 fill="none" stroke="#5c5c5c" stroke-width="0.5" stroke-linecap="butt" stroke-linejoin="miter"
 d=""/>
<path
 fill="none" stroke="#5c5c5c" stroke-width="0.5" stroke-linecap="butt" stroke-linejoin="miter"
 d=""/>
<path
 fill="none" stroke="#5c5c5c" stroke-width="0.5" stroke-linecap="butt" stroke-linejoin="miter"
 d=""/>
<path
 fill="none" stroke="#5c5c5c" stroke-width="0.5" stroke-linecap="butt" stroke-linejoin="miter"
 d=""/>
<path
 fill="none" stroke="#5c5c5c" stroke-width="0.5" stroke-linecap="butt" stroke-linejoin="miter"
 d=""/>
<path
 fill="none" stroke="#5c5c5c" stroke-width="0.5" stroke-linecap="butt" stroke-linejoin="miter"
 d=""/>
<path
 fill="none" stroke="#5c5c5c" stroke-width="0.5" stroke-linecap="butt" stroke-linejoin="miter"
 d=""/>
<path
 fill="none" stroke="#5c5c5c" stroke-width="0.5" stroke-linecap="butt" stroke-linejoin="miter"
 d=""/>
<path
 fill="none" stroke="#5c5c5c" stroke-width="0.5" stroke-linecap="butt" stroke-linejoin="miter"
 d=""/>
<path
 fill="none" stroke="#5c5c5c" stroke-width="0.5" stroke-linecap="butt" stroke-linejoin="miter"
 d=""/>
<path
 fill="none" stroke="#5c5c5c" stroke-width="0.5" stroke-linecap="butt" stroke-linejoin="miter"
 d=""/>
<path
 fill="none" stroke="#5c5c5c" stroke-width="0.5" stroke-linecap="butt" stroke-linejoin="miter"
 d=""/>
<path
 fill="none" stroke="#5c5c5c" stroke-width="0.5" stroke-linecap="butt" stroke-linejoin="miter"
 d=""/>
<path
 fill="none" stroke="#5c5c5c" stroke-width="0.5" stroke-linecap="butt" stroke-linejoin="miter"
 d=""/>
<path
 fill="none" stroke="#5c5c5c" stroke-width="0.5" stroke-linecap="butt" stroke-linejoin="miter"
 d=""/>
<path
 fill="none" stroke="#5c5c5c" stroke-width="0.5" stroke-linecap="butt" stroke-linejoin="miter"
 d=""/>
<path
 fill="none" stroke="#5c5c5c" stroke-width="0.5" stroke-linecap="butt" stroke-linejoin="miter"
 d=""/>
<path
 fill="none" stroke="#5c5c5c" stroke-width="0.5" stroke-linecap="butt" stroke-linejoin="miter"
 d=""/>
<path
 fill="none" stroke="#5c5c5c" stroke-width="0.5" stroke-linecap="butt" stroke-linejoin="miter"
 d=""/>
<path
 fill="none" stroke="#5c5c5c" stroke-width="0.5" stroke-linecap="butt" stroke-linejoin="miter"
 d=""/>
<path
 fill="none" stroke="#5c5c5c" stroke-width="0.5" stroke-linecap="butt" stroke-linejoin="miter"
 d=""/>
<path
 fill="none" stroke="#5c5c5c" stroke-width="0.5" stroke-linecap="butt" stroke-linejoin="miter"
 d=""/>
<path
 fill="none" stroke="#5c5c5c" stroke-width="0.5" stroke-linecap="butt" stroke-linejoin="miter"
 d=""/>
<path
 fill="none" stroke="#5c5c5c" stroke-width="0.5" stroke-linecap="butt" stroke-linejoin="miter"
 d=""/>
<path
 fill="none" stroke="#5c5c5c" stroke-width="0.5" stroke-linecap="butt" stroke-linejoin="miter"
 d=""/>
<path
 fill="none" stroke="#5c5c5c" stroke-width="0.5" stroke-linecap="butt" stroke-linejoin="miter"
 d=""/>
<path
 fill="none" stroke="#5c5c5c" stroke-width="0.5" stroke-linecap="butt" stroke-linejoin="miter"
 d=""/>
<path
 fill="none" stroke="#5c5c5c" stroke-width="0.5" stroke-linecap="butt" stroke-linejoin="miter"
 d=""/>
<path
 fill="none" stroke="#5c5c5c" stroke-width="0.5" stroke-linecap="butt" stroke-linejoin="miter"
 d=""/>
<path
 fill="none" stroke="#5c5c5c" stroke-width="0.5" stroke-linecap="butt" stroke-linejoin="miter"
 d=""/>
<path
 fill="none" stroke="#5c5c5c" stroke-width="0.5" stroke-linecap="butt" stroke-linejoin="miter"
 d=""/>
<path
 fill="none" stroke="#5c5c5c" stroke-width="0.5" stroke-linecap="butt" stroke-linejoin="miter"
 d=""/>
<path
 fill="none" stroke="#5c5c5c" stroke-width="0.5" stroke-linecap="butt" stroke-linejoin="miter"
 d=""/>
<path
 fill="none" stroke="#5c5c5c" stroke-width="0.5" stroke-linecap="butt" stroke-linejoin="miter"
 d=""/>
<path
 fill="none" stroke="#5c5c5c" stroke-width="0.5" stroke-linecap="butt" stroke-linejoin="miter"
 d=""/>
<path
 fill="none" stroke="#5c5c5c" stroke-width="0.5" stroke-linecap="butt" stroke-linejoin="miter"
 d=""/>
<path
 fill="none" stroke="#5c5c5c" stroke-width="0.5" stroke-linecap="butt" stroke-linejoin="miter"
 d=""/>
<path
 fill="none" stroke="#5c5c5c" stroke-width="0.5" stroke-linecap="butt" stroke-linejoin="miter"
 d=""/>
<path
 fill="none" stroke="#5c5c5c" stroke-width="0.5" stroke-linecap="butt" stroke-linejoin="miter"
 d=""/>
<path
 fill="none" stroke="#5c5c5c" stroke-width="0.5" stroke-linecap="butt" stroke-linejoin="miter"
 d=""/>
<path
 fill="none" stroke="#5c5c5c" stroke-width="0.5" stroke-linecap="butt" stroke-linejoin="miter"
 d=""/>
<path
 fill="none" stroke="#5c5c5c" stroke-width="0.5" stroke-linecap="butt" stroke-linejoin="miter"
 d=""/>
<path
 fill="none" stroke="#5c5c5c" stroke-width="0.5" stroke-linecap="butt" stroke-linejoin="miter"
 d=""/>
<path
 fill="none" stroke="#5c5c5c" stroke-width="0.5" stroke-linecap="butt" stroke-linejoin="miter"
 d=""/>
<path
 fill="none" stroke="#5c5c5c" stroke-width="0.5" stroke-linecap="butt" stroke-linejoin="miter"
 d=""/>
<path
 fill="none" stroke="#5c5c5c" stroke-width="0.5" stroke-linecap="butt" stroke-linejoin="miter"
 d=""/>
<path
 fill="none" stroke="#5c5c5c" stroke-width="0.5" stroke-linecap="butt" stroke-linejoin="miter"
 d=""/>
<path
 fill="none" stroke="#5c5c5c" stroke-width="0.5" stroke-linecap="butt" stroke-linejoin="miter"
 d=""/>
<path
 fill="none" stroke="#5c5c5c" stroke-width="0.5" stroke-linecap="butt" stroke-linejoin="miter"
 d=""/>
<path
 fill="none" stroke="#5c5c5c" stroke-width="0.5" stroke-linecap="butt" stroke-linejoin="miter"
 d=""/>
<path
 fill="none" stroke="#5c5c5c" stroke-width="0.5" stroke-linecap="butt" stroke-linejoin="miter"
 d=""/>
<path
 fill="none" stroke="#5c5c5c" stroke-width="0.5" stroke-linecap="butt" stroke-linejoin="miter"
 d=""/>
<path
 fill="none" stroke="#5c5c5c" stroke-width="0.5" stroke-linecap="butt" stroke-linejoin="miter"
 d=""/>
<path
 fill="none" stroke="#5c5c5c" stroke-width="0.5" stroke-linecap="butt" stroke-linejoin="miter"
 d=""/>
<path
 fill="none" stroke="#5c5c5c" stroke-width="0.5" stroke-linecap="butt" stroke-linejoin="miter"
 d=""/>
<path
 fill="none" stroke="#5c5c5c" stroke-width="0.5" stroke-linecap="butt" stroke-linejoin="miter"
 d=""/>
<path
 fill="none" stroke="#5c5c5c" stroke-width="0.5" stroke-linecap="butt" stroke-linejoin="miter"
 d=""/>
<path
 fill="none" stroke="#5c5c5c" stroke-width="0.5" stroke-linecap="butt" stroke-linejoin="miter"
 d=""/>
<path
 fill="none" stroke="#5c5c5c" stroke-width="0.5" stroke-linecap="butt" stroke-linejoin="miter"
 d=""/>
<path
 fill="none" stroke="#5c5c5c" stroke-width="0.5" stroke-linecap="butt" stroke-linejoin="miter"
 d=""/>
<path
 fill="none" stroke="#5c5c5c" stroke-width="0.5" stroke-linecap="butt" stroke-linejoin="miter"
 d=""/>
<path
 fill="none" stroke="#5c5c5c" stroke-width="0.5" stroke-linecap="butt" stroke-linejoin="miter"
 d=""/>
<path
 fill="none" stroke="#5c5c5c" stroke-width="0.5" stroke-linecap="butt" stroke-linejoin="miter"
 d=""/>
<path
 fill="none" stroke="#5c5c5c" stroke-width="0.5" stroke-linecap="butt" stroke-linejoin="miter"
 d=""/>
<path
 fill="none" stroke="#5c5c5c" stroke-width="0.5" stroke-linecap="butt" stroke-linejoin="miter"
 d=""/>
<path
 fill="none" stroke="#5c5c5c" stroke-width="0.5" stroke-linecap="butt" stroke-linejoin="miter"
 d=""/>
<path
 fill="none" stroke="#5c5c5c" stroke-width="0.5" stroke-linecap="butt" stroke-linejoin="miter"
 d=""/>
<path
 fill="none" stroke="#5c5c5c" stroke-width="0.5" stroke-linecap="butt" stroke-linejoin="miter"
 d=""/>
<path
 fill="none" stroke="#5c5c5c" stroke-width="0.5" stroke-linecap="butt" stroke-linejoin="miter"
 d=""/>
<path
 fill="none" stroke="#5c5c5c" stroke-width="0.5" stroke-linecap="butt" stroke-linejoin="miter"
 d=""/>
<path
 fill="none" stroke="#5c5c5c" stroke-width="0.5" stroke-linecap="butt" stroke-linejoin="miter"
 d=""/>
<text x="65.6073" y="160.892" id="text1002">
  <tspan x="65.6073" y="160.892" fill="#807b88"  font-variant="normal" font-weight="normal" font-style="normal" font-family="Bitstream Vera Sans" font-size="7.5" id="tspan1003">R</tspan>
</text>
<path
 fill="#d90000" stroke="#000000" stroke-width="0.72" stroke-linecap="butt" stroke-linejoin="miter"
 d="M 70.8723 150.639 A 2.5575,2.5575 0 0,1 65.7573,150.639A 2.5575,2.5575 0 0,1 70.8723,150.639Z"/>
<path
 fill="#d90000" stroke="#000000" stroke-width="0.72" stroke-linecap="butt" stroke-linejoin="miter"
 d="M 70.8723 143.079 A 2.5575,2.5575 0 0,1 65.7573,143.079A 2.5575,2.5575 0 0,1 70.8723,143.079Z"/>
<path
 fill="#d90000" stroke="#000000" stroke-width="0.72" stroke-linecap="butt" stroke-linejoin="miter"
 d="M 70.8723 135.519 A 2.5575,2.5575 0 0,1 65.7573,135.519A 2.5575,2.5575 0 0,1 70.8723,135.519Z"/>
<path
 fill="#d90000" stroke="#000000" stroke-width="0.72" stroke-linecap="butt" stroke-linejoin="miter"
 d="M 70.8723 127.959 A 2.5575,2.5575 0 0,1 65.7573,127.959A 2.5575,2.5575 0 0,1 70.8723,127.959Z"/>
<path
 fill="#d90000" stroke="#000000" stroke-width="0.72" stroke-linecap="butt" stroke-linejoin="miter"
 d="M 70.8723 120.399 A 2.5575,2.5575 0 0,1 65.7573,120.399A 2.5575,2.5575 0 0,1 70.8723,120.399Z"/>
<path
 fill="#d90000" stroke="#000000" stroke-width="0.72" stroke-linecap="butt" stroke-linejoin="miter"
 d="M 70.8723 112.839 A 2.5575,2.5575 0 0,1 65.7573,112.839A 2.5575,2.5575 0 0,1 70.8723,112.839Z"/>
<text x="58.8734" y="112.095" id="text1004">
  <tspan x="58.8734" y="112.095" fill="#000000"  font-variant="normal" font-weight="normal" font-style="normal" font-family="Bitstream Vera Sans" font-size="7.5" id="tspan1005">U</tspan>
</text>
<text x="53.7724" y="106.516" id="text1006">
  <tspan x="53.7724" y="106.516" fill="#000000"  font-variant="normal" font-weight="normal" font-style="normal" font-family="Bitstream Vera Sans" font-size="7.5" id="tspan1007">R</tspan>
</text>
<text x="50.7423" y="99.5013" id="text1008">
  <tspan x="50.7423" y="99.5013" fill="#807b88"  font-variant="normal" font-weight="normal" font-style="normal" font-family="Bitstream Vera Sans" font-size="7.5" id="tspan1009">G</tspan>
</text>
<text x="43.6288" y="98.8249" id="text1010">
  <tspan x="43.6288" y="98.8249" fill="#807b88"  font-variant="normal" font-weight="normal" font-style="normal" font-family="Bitstream Vera Sans" font-size="7.5" id="tspan1011">Y</tspan>
</text>
<path
 fill="#d90000" stroke="#000000" stroke-width="0.72" stroke-linecap="butt" stroke-linejoin="miter"
 d="M 41.1579 95.4561 A 2.5575,2.5575 0 0,1 36.0429,95.4561A 2.5575,2.5575 0 0,1 41.1579,95.4561Z"/>
<path
 fill="#d90000" stroke="#000000" stroke-width="0.72" stroke-linecap="butt" stroke-linejoin="miter"
 d="M 33.6282 94.7797 A 2.5575,2.5575 0 0,1 28.5132,94.7797A 2.5575,2.5575 0 0,1 33.6282,94.7797Z"/>
<text x="25.2155" y="104.248" id="text1012">
  <tspan x="25.2155" y="104.248" fill="#000000"  font-variant="normal" font-weight="normal" font-style="normal" font-family="Bitstream Vera Sans" font-size="7.5" id="tspan1013">A</tspan>
</text>
<text x="17.8111" y="106.558" id="text1014">
  <tspan x="17.8111" y="106.558" fill="#807b88"  font-variant="normal" font-weight="normal" font-style="normal" font-family="Bitstream Vera Sans" font-size="7.5" id="tspan1015">R</tspan>
</text>
<path
 fill="#807b88" stroke="#000000" stroke-width="0.72" stroke-linecap="butt" stroke-linejoin="miter"
 d="M 16.405 100.309 A 2.5575,2.5575 0 0,1 11.29,100.309A 2.5575,2.5575 0 0,1 16.405,100.309Z"/>
<text x="9.04714" y="95.7372" id="text1016">
  <tspan x="9.04714" y="95.7372" fill="#807b88"  font-variant="normal" font-weight="normal" font-style="normal" font-family="Bitstream Vera Sans" font-size="7.5" id="tspan1017">R</tspan>
</text>
<text x="10.1422" y="83.5463" id="text1018">
  <tspan x="10.1422" y="83.5463" fill="#807b88"  font-variant="normal" font-weight="normal" font-style="normal" font-family="Bitstream Vera Sans" font-size="7.5" id="tspan1019">R</tspan>
</text>
<path
 fill="#807b88" stroke="#000000" stroke-width="0.72" stroke-linecap="butt" stroke-linejoin="miter"
 d="M 21.7213 76.6963 A 2.5575,2.5575 0 0,1 16.6063,76.6963A 2.5575,2.5575 0 0,1 21.7213,76.6963Z"/>
<text x="24.1923" y="80.0651" id="text1020">
  <tspan x="24.1923" y="80.0651" fill="#807b88"  font-variant="normal" font-weight="normal" font-style="normal" font-family="Bitstream Vera Sans" font-size="7.5" id="tspan1021">A</tspan>
</text>
<text x="29.4582" y="85.2813" id="text1022">
  <tspan x="29.4582" y="85.2813" fill="#807b88"  font-variant="normal" font-weight="normal" font-style="normal" font-family="Bitstream Vera Sans" font-size="7.5" id="tspan1023">R</tspan>
</text>
<path
 fill="#d90000" stroke="#000000" stroke-width="0.72" stroke-linecap="butt" stroke-linejoin="miter"
 d="M 42.2529 83.2651 A 2.5575,2.5575 0 0,1 37.1379,83.2651A 2.5575,2.5575 0 0,1 42.2529,83.2651Z"/>
<text x="44.5176" y="86.634" id="text1024">
  <tspan x="44.5176" y="86.634" fill="#807b88"  font-variant="normal" font-weight="normal" font-style="normal" font-family="Bitstream Vera Sans" font-size="7.5" id="tspan1025">R</tspan>
</text>
<text x="52.2535" y="87.3103" id="text1026">
  <tspan x="52.2535" y="87.3103" fill="#807b88"  font-variant="normal" font-weight="normal" font-style="normal" font-family="Bitstream Vera Sans" font-size="7.5" id="tspan1027">Y</tspan>
</text>
<text x="56.0723" y="80.9109" id="text1028">
  <tspan x="56.0723" y="80.9109" fill="#000000"  font-variant="normal" font-weight="normal" font-style="normal" font-family="Bitstream Vera Sans" font-size="7.5" id="tspan1029">R</tspan>
</text>
<path
 fill="#d90000" stroke="#000000" stroke-width="0.72" stroke-linecap="butt" stroke-linejoin="miter"
 d="M 67.351 73.637 A 2.5575,2.5575 0 0,1 62.236,73.637A 2.5575,2.5575 0 0,1 67.351,73.637Z"/>
<path
 fill="#d90000" stroke="#000000" stroke-width="0.72" stroke-linecap="butt" stroke-linejoin="miter"
 d="M 66.0037 66.198 A 2.5575,2.5575 0 0,1 60.8887,66.198A 2.5575,2.5575 0 0,1 66.0037,66.198Z"/>
<path
 fill="#d90000" stroke="#000000" stroke-width="0.72" stroke-linecap="butt" stroke-linejoin="miter"
 d="M 64.6565 58.759 A 2.5575,2.5575 0 0,1 59.5415,58.759A 2.5575,2.5575 0 0,1 64.6565,58.759Z"/>
<text x="58.0442" y="54.0126" id="text1030">
  <tspan x="58.0442" y="54.0126" fill="#807b88"  font-variant="normal" font-weight="normal" font-style="normal" font-family="Bitstream Vera Sans" font-size="7.5" id="tspan1031">R</tspan>
</text>
<path
 fill="#d90000" stroke="#000000" stroke-width="0.72" stroke-linecap="butt" stroke-linejoin="miter"
 d="M 61.9619 43.8811 A 2.5575,2.5575 0 0,1 56.8469,43.8811A 2.5575,2.5575 0 0,1 61.9619,43.8811Z"/>
<text x="51.0661" y="41.7692" id="text1032">
  <tspan x="51.0661" y="41.7692" fill="#d90000"  font-variant="normal" font-weight="normal" font-style="normal" font-family="Bitstream Vera Sans" font-size="7.5" id="tspan1033">Y</tspan>
</text>
<text x="49.118" y="34.4126" id="text1034">
  <tspan x="49.118" y="34.4126" fill="#d90000"  font-variant="normal" font-weight="normal" font-style="normal" font-family="Bitstream Vera Sans" font-size="7.5" id="tspan1035">U</tspan>
</text>
<path
 fill="#d90000" stroke="#000000" stroke-width="0.72" stroke-linecap="butt" stroke-linejoin="miter"
 d="M 57.4461 24.8084 A 2.5575,2.5575 0 0,1 52.3311,24.8084A 2.5575,2.5575 0 0,1 57.4461,24.8084Z"/>
<path
 fill="#d90000" stroke="#000000" stroke-width="0.72" stroke-linecap="butt" stroke-linejoin="miter"
 d="M 64.0661 21.1575 A 2.5575,2.5575 0 0,1 58.9511,21.1575A 2.5575,2.5575 0 0,1 64.0661,21.1575Z"/>
<path
 fill="#d90000" stroke="#000000" stroke-width="0.72" stroke-linecap="butt" stroke-linejoin="miter"
 d="M 71.546 22.2548 A 2.5575,2.5575 0 0,1 66.431,22.2548A 2.5575,2.5575 0 0,1 71.546,22.2548Z"/>
<text x="71.7798" y="30.3457" id="text1036">
  <tspan x="71.7798" y="30.3457" fill="#807b88"  font-variant="normal" font-weight="normal" font-style="normal" font-family="Bitstream Vera Sans" font-size="7.5" id="tspan1037">A</tspan>
</text>
<path
 fill="#d90000" stroke="#000000" stroke-width="0.72" stroke-linecap="butt" stroke-linejoin="miter"
 d="M 77.7874 35.1534 A 2.5575,2.5575 0 0,1 72.6724,35.1534A 2.5575,2.5575 0 0,1 77.7874,35.1534Z"/>
<path
 fill="#d90000" stroke="#000000" stroke-width="0.72" stroke-linecap="butt" stroke-linejoin="miter"
 d="M 74.006 41.6998 A 2.5575,2.5575 0 0,1 68.891,41.6998A 2.5575,2.5575 0 0,1 74.006,41.6998Z"/>
<text x="70.2945" y="51.8313" id="text1038">
  <tspan x="70.2945" y="51.8313" fill="#807b88"  font-variant="normal" font-weight="normal" font-style="normal" font-family="Bitstream Vera Sans" font-size="7.5" id="tspan1039">Y</tspan>
</text>
<path
 fill="#d90000" stroke="#000000" stroke-width="0.72" stroke-linecap="butt" stroke-linejoin="miter"
 d="M 76.7005 56.5778 A 2.5575,2.5575 0 0,1 71.5855,56.5778A 2.5575,2.5575 0 0,1 76.7005,56.5778Z"/>
<path
 fill="#d90000" stroke="#000000" stroke-width="0.72" stroke-linecap="butt" stroke-linejoin="miter"
 d="M 78.0478 64.0168 A 2.5575,2.5575 0 0,1 72.9328,64.0168A 2.5575,2.5575 0 0,1 78.0478,64.0168Z"/>
<path
 fill="#d90000" stroke="#000000" stroke-width="0.72" stroke-linecap="butt" stroke-linejoin="miter"
 d="M 79.3951 71.4557 A 2.5575,2.5575 0 0,1 74.2801,71.4557A 2.5575,2.5575 0 0,1 79.3951,71.4557Z"/>
<path
 fill="#d90000" stroke="#000000" stroke-width="0.72" stroke-linecap="butt" stroke-linejoin="miter"
 d="M 86.6335 73.637 A 2.5575,2.5575 0 0,1 81.5185,73.637A 2.5575,2.5575 0 0,1 86.6335,73.637Z"/>
<path
 fill="#807b88" stroke="#000000" stroke-width="0.72" stroke-linecap="butt" stroke-linejoin="miter"
 d="M 92.6472 78.2184 A 2.5575,2.5575 0 0,1 87.5322,78.2184A 2.5575,2.5575 0 0,1 92.6472,78.2184Z"/>
<path
 fill="#000000" stroke="#000000" stroke-width="0.72" stroke-linecap="butt" stroke-linejoin="miter"
 d="M 96.6722 84.6179 A 2.5575,2.5575 0 0,1 91.5572,84.6179A 2.5575,2.5575 0 0,1 96.6722,84.6179Z"/>
<text x="93.1384" y="94.715" id="text1040">
  <tspan x="93.1384" y="94.715" fill="#807b88"  font-variant="normal" font-weight="normal" font-style="normal" font-family="Bitstream Vera Sans" font-size="7.5" id="tspan1041">Y</tspan>
</text>
<text x="91.7634" y="102.184" id="text1042">
  <tspan x="91.7634" y="102.184" fill="#807b88"  font-variant="normal" font-weight="normal" font-style="normal" font-family="Bitstream Vera Sans" font-size="7.5" id="tspan1043">R</tspan>
</text>
<path
 fill="#d90000" stroke="#000000" stroke-width="0.72" stroke-linecap="butt" stroke-linejoin="miter"
 d="M 103.15 103.928 A 2.5575,2.5575 0 0,1 98.035,103.928A 2.5575,2.5575 0 0,1 103.15,103.928Z"/>
<path
 fill="#d90000" stroke="#000000" stroke-width="0.72" stroke-linecap="butt" stroke-linejoin="miter"
 d="M 109.272 108.364 A 2.5575,2.5575 0 0,1 104.157,108.364A 2.5575,2.5575 0 0,1 109.272,108.364Z"/>
<text x="110.128" y="115.492" id="text1044">
  <tspan x="110.128" y="115.492" fill="#000000"  font-variant="normal" font-weight="normal" font-style="normal" font-family="Bitstream Vera Sans" font-size="7.5" id="tspan1045">R</tspan>
</text>
<text x="116.04" y="119.928" id="text1046">
  <tspan x="116.04" y="119.928" fill="#807b88"  font-variant="normal" font-weight="normal" font-style="normal" font-family="Bitstream Vera Sans" font-size="7.5" id="tspan1047">G</tspan>
</text>
<text x="123.788" y="119.355" id="text1048">
  <tspan x="123.788" y="119.355" fill="#807b88"  font-variant="normal" font-weight="normal" font-style="normal" font-family="Bitstream Vera Sans" font-size="7.5" id="tspan1049">U</tspan>
</text>
<text x="130.138" y="123.459" id="text1050">
  <tspan x="130.138" y="123.459" fill="#807b88"  font-variant="normal" font-weight="normal" font-style="normal" font-family="Bitstream Vera Sans" font-size="7.5" id="tspan1051">U</tspan>
</text>
<text x="132.918" y="130.567" id="text1052">
  <tspan x="132.918" y="130.567" fill="#807b88"  font-variant="normal" font-weight="normal" font-style="normal" font-family="Bitstream Vera Sans" font-size="7.5" id="tspan1053">Y</tspan>
</text>
<text x="130.461" y="137.784" id="text1054">
  <tspan x="130.461" y="137.784" fill="#000000"  font-variant="normal" font-weight="normal" font-style="normal" font-family="Bitstream Vera Sans" font-size="7.5" id="tspan1055">R</tspan>
</text>
<text x="124.509" y="142.17" id="text1056">
  <tspan x="124.509" y="142.17" fill="#000000"  font-variant="normal" font-weight="normal" font-style="normal" font-family="Bitstream Vera Sans" font-size="7.5" id="tspan1057">A</tspan>
</text>
<path
 fill="#000000" stroke="#000000" stroke-width="0.72" stroke-linecap="butt" stroke-linejoin="miter"
 d="M 122.012 139.245 A 2.5575,2.5575 0 0,1 116.897,139.245A 2.5575,2.5575 0 0,1 122.012,139.245Z"/>
<text x="110.87" y="137.182" id="text1058">
  <tspan x="110.87" y="137.182" fill="#807b88"  font-variant="normal" font-weight="normal" font-style="normal" font-family="Bitstream Vera Sans" font-size="7.5" id="tspan1059">U</tspan>
</text>
<text x="109.068" y="129.84" id="text1060">
  <tspan x="109.068" y="129.84" fill="#807b88"  font-variant="normal" font-weight="normal" font-style="normal" font-family="Bitstream Vera Sans" font-size="7.5" id="tspan1061">C</tspan>
</text>
<text x="103.152" y="125.404" id="text1062">
  <tspan x="103.152" y="125.404" fill="#000000"  font-variant="normal" font-weight="normal" font-style="normal" font-family="Bitstream Vera Sans" font-size="7.5" id="tspan1063">Y</tspan>
</text>
<path
 fill="#d90000" stroke="#000000" stroke-width="0.72" stroke-linecap="butt" stroke-linejoin="miter"
 d="M 102.089 118.275 A 2.5575,2.5575 0 0,1 96.9744,118.275A 2.5575,2.5575 0 0,1 102.089,118.275Z"/>
<path
 fill="#d90000" stroke="#000000" stroke-width="0.72" stroke-linecap="butt" stroke-linejoin="miter"
 d="M 95.9678 113.839 A 2.5575,2.5575 0 0,1 90.8528,113.839A 2.5575,2.5575 0 0,1 95.9678,113.839Z"/>
<text x="84.7874" y="112.095" id="text1064">
  <tspan x="84.7874" y="112.095" fill="#807b88"  font-variant="normal" font-weight="normal" font-style="normal" font-family="Bitstream Vera Sans" font-size="7.5" id="tspan1065">Y</tspan>
</text>
<path
 fill="#d90000" stroke="#000000" stroke-width="0.72" stroke-linecap="butt" stroke-linejoin="miter"
 d="M 83.1123 112.839 A 2.5575,2.5575 0 0,1 77.9973,112.839A 2.5575,2.5575 0 0,1 83.1123,112.839Z"/>
<path
 fill="#d90000" stroke="#000000" stroke-width="0.72" stroke-linecap="butt" stroke-linejoin="miter"
 d="M 83.1123 120.399 A 2.5575,2.5575 0 0,1 77.9973,120.399A 2.5575,2.5575 0 0,1 83.1123,120.399Z"/>
<path
 fill="#d90000" stroke="#000000" stroke-width="0.72" stroke-linecap="butt" stroke-linejoin="miter"
 d="M 83.1123 127.959 A 2.5575,2.5575 0 0,1 77.9973,127.959A 2.5575,2.5575 0 0,1 83.1123,127.959Z"/>
<path
 fill="#d90000" stroke="#000000" stroke-width="0.72" stroke-linecap="butt" stroke-linejoin="miter"
 d="M 83.1123 135.519 A 2.5575,2.5575 0 0,1 77.9973,135.519A 2.5575,2.5575 0 0,1 83.1123,135.519Z"/>
<path
 fill="#d90000" stroke="#000000" stroke-width="0.72" stroke-linecap="butt" stroke-linejoin="miter"
 d="M 83.1123 143.079 A 2.5575,2.5575 0 0,1 77.9973,143.079A 2.5575,2.5575 0 0,1 83.1123,143.079Z"/>
<path
 fill="#d90000" stroke="#000000" stroke-width="0.72" stroke-linecap="butt" stroke-linejoin="miter"
 d="M 83.1123 150.639 A 2.5575,2.5575 0 0,1 77.9973,150.639A 2.5575,2.5575 0 0,1 83.1123,150.639Z"/>
<text x="78.0535" y="160.892" id="text1066">
  <tspan x="78.0535" y="160.892" fill="#807b88"  font-variant="normal" font-weight="normal" font-style="normal" font-family="Bitstream Vera Sans" font-size="7.5" id="tspan1067">Y</tspan>
</text>
<text x="83.193" y="166.237" id="text1068">
  <tspan x="83.193" y="166.237" fill="#807b88"  font-variant="normal" font-weight="normal" font-style="normal" font-family="Bitstream Vera Sans" font-size="7.5" id="tspan1069">R</tspan>
</text>
<path
 fill="none" stroke="#000000" stroke-width="0.72" stroke-linecap="butt" stroke-linejoin="miter"
 d="M 68.3148 161.763 A 1.78191,1.78191 0 0,1 66.5328,163.545L 62.969 163.545 "/>
<path
 fill="none" stroke="#000000" stroke-width="0.5" stroke-linecap="butt" stroke-linejoin="miter"
 d="M 20.1831 107.601 L 19.8252 111.585 "/>
<path
 fill="none" stroke="#000000" stroke-width="0.5" stroke-linecap="butt" stroke-linejoin="miter"
 d="M 13.1852 77.1188 L 13.543 73.1348 "/>
<path
 fill="none" stroke="#000000" stroke-width="0.5" stroke-linecap="butt" stroke-linejoin="miter"
 d="M 139.168 127.79 L 143.167 127.7 "/>
<path
 fill="none" stroke="#000000" stroke-width="0.5" stroke-linecap="butt" stroke-linejoin="miter"
 d="M 99.3886 91.9327 L 103.387 91.8369 "/>
<text x="13.187" y="117.387" id="text1070">
  <tspan x="13.187" y="117.387" fill="#000000"  font-variant="normal" font-weight="normal" font-style="normal" font-family="Bitstream Vera Sans" font-size="6" id="tspan1071">pk_1</tspan>
</text>
<text x="8.50821" y="70.3989" id="text1072">
  <tspan x="8.50821" y="70.3989" fill="#000000"  font-variant="normal" font-weight="normal" font-style="normal" font-family="Bitstream Vera Sans" font-size="6" id="tspan1073">tr_1</tspan>
</text>
<text x="144.667" y="129.199" id="text1074">
  <tspan x="144.667" y="129.199" fill="#000000"  font-variant="normal" font-weight="normal" font-style="normal" font-family="Bitstream Vera Sans" font-size="6" id="tspan1075">tr_1</tspan>
</text>
<text x="104.887" y="93.334" id="text1076">
  <tspan x="104.887" y="93.334" fill="#000000"  font-variant="normal" font-weight="normal" font-style="normal" font-family="Bitstream Vera Sans" font-size="6" id="tspan1077">pk_1</tspan>
</text>
<text x="55.8665" y="166.237" id="text1078">
  <tspan x="55.8665" y="166.237" fill="#000000"  font-variant="normal" font-weight="normal" font-style="normal" font-family="Bitstream Vera Sans" font-size="7.5" id="tspan1079">5&#x2032;</tspan>
</text>
<text x="162.505" y="8.616" id="text1080">
  <tspan x="162.505" y="8.616" fill="#000000"  font-variant="normal" font-weight="normal" font-style="normal" font-family="Bitstream Vera Sans" font-size="12" id="tspan1081">pk_1</tspan>
</text>
<path
 fill="#31a354" stroke="none"
 d="M 171.087 19.6875 L 171.087,19.6875L 189.162,19.6875L 189.162,25.0725L 171.087,25.0725Z"/>
<path
 fill="none" stroke="#000000" stroke-width="1.44" stroke-linecap="butt" stroke-linejoin="miter"
 d="M 178.181 22.38 L 182.069 22.38 "/>
<path
 fill="none" stroke="#5c5c5c" stroke-width="0.5" stroke-linecap="butt" stroke-linejoin="miter"
 d="M 170.255 18.6 L 170.255 26.16 "/>
<path
 fill="none" stroke="#5c5c5c" stroke-width="0.5" stroke-linecap="butt" stroke-linejoin="miter"
 d="M 189.995 26.16 L 189.995 18.6 "/>
<path
 fill="none" stroke="#5c5c5c" stroke-width="0.5" stroke-linecap="butt" stroke-linejoin="miter"
 d=""/>
<path
 fill="none" stroke="#5c5c5c" stroke-width="0.5" stroke-linecap="butt" stroke-linejoin="miter"
 d=""/>
<text x="171.297" y="25.0725" id="text1082">
  <tspan x="171.297" y="25.0725" fill="#807b88"  font-variant="normal" font-weight="normal" font-style="normal" font-family="Bitstream Vera Sans" font-size="7.5" id="tspan1083">R</tspan>
</text>
<text x="183.743" y="25.0725" id="text1084">
  <tspan x="183.743" y="25.0725" fill="#807b88"  font-variant="normal" font-weight="normal" font-style="normal" font-family="Bitstream Vera Sans" font-size="7.5" id="tspan1085">Y</tspan>
</text>
<text x="0" y="182.353" id="text1086">
  <tspan x="0" y="182.353" fill="#000000"  font-variant="normal" font-weight="normal" font-style="normal" font-family="Bitstream Vera Sans" font-size="12" id="tspan1087">tr_1</tspan>
</text>
<path
 fill="#31a354" stroke="none"
 d="M 8.5825 193.425 L 8.5825,193.425L 26.6575,193.425L 26.6575,198.81L 8.5825,198.81Z"/>
<path
 fill="none" stroke="#000000" stroke-width="1.44" stroke-linecap="butt" stroke-linejoin="miter"
 d="M 15.676 196.117 L 19.564 196.117 "/>
<path
 fill="none" stroke="#5c5c5c" stroke-width="0.5" stroke-linecap="butt" stroke-linejoin="miter"
 d="M 7.75 192.337 L 7.75 199.897 "/>
<path
 fill="none" stroke="#5c5c5c" stroke-width="0.5" stroke-linecap="butt" stroke-linejoin="miter"
 d="M 27.49 199.897 L 27.49 192.337 "/>
<path
 fill="none" stroke="#5c5c5c" stroke-width="0.5" stroke-linecap="butt" stroke-linejoin="miter"
 d=""/>
<path
 fill="none" stroke="#5c5c5c" stroke-width="0.5" stroke-linecap="butt" stroke-linejoin="miter"
 d=""/>
<text x="8.7925" y="198.81" id="text1088">
  <tspan x="8.7925" y="198.81" fill="#807b88"  font-variant="normal" font-weight="normal" font-style="normal" font-family="Bitstream Vera Sans" font-size="7.5" id="tspan1089">R</tspan>
</text>
<text x="21.2388" y="198.81" id="text1090">
  <tspan x="21.2388" y="198.81" fill="#807b88"  font-variant="normal" font-weight="normal" font-style="normal" font-family="Bitstream Vera Sans" font-size="7.5" id="tspan1091">Y</tspan>
</text>
</svg>
